<svg xmlns="http://www.w3.org/2000/svg" viewBox="0 0 900 305" font-family="'IBM Plex Mono',ui-monospace,Menlo,monospace" role="img" aria-label="AWS Bedrock — LLM Cost &amp; Usage Observability"><defs><marker id="ah" viewBox="0 0 10 10" refX="8" refY="5" markerWidth="7" markerHeight="7" orient="auto-start-reverse"><path d="M0 0L10 5L0 10z" fill="#b3ab99"/></marker></defs><rect width="900" height="305" fill="#ffffff"/><text x="26" y="32" fill="#27317f" font-size="15" font-weight="700">AWS Bedrock — LLM Cost &amp; Usage Observability</text><text x="26" y="51" fill="#8b8675" font-size="10.5">token-level cost-per-request attribution · Terraform IaC</text><rect x="26" y="70" width="142.4" height="133" rx="11" fill="#f4f0e7" stroke="#e6e0d3" stroke-width="1.5"/><rect x="26" y="70" width="5" height="133" rx="2.5" fill="#a96a12"/><text x="45" y="95" fill="#1f1d18" font-size="13" font-weight="700">Bedrock</text><text x="45" y="118" fill="#5f5b50" font-size="10.5">model invocations</text><text x="45" y="132" fill="#5f5b50" font-size="10.5">multi-region</text><path d="M170.4 136.5 H198.4" stroke="#b3ab99" stroke-width="1.7" fill="none" marker-end="url(#ah)"/><rect x="202.4" y="70" width="142.4" height="133" rx="11" fill="#f4f0e7" stroke="#e6e0d3" stroke-width="1.5"/><rect x="202.4" y="70" width="5" height="133" rx="2.5" fill="#2c7572"/><text x="221.4" y="95" fill="#1f1d18" font-size="13" font-weight="700">CloudWatch</text><text x="221.4" y="112" fill="#1f1d18" font-size="13" font-weight="700">Logs</text><text x="221.4" y="135" fill="#5f5b50" font-size="10.5">invocation logs</text><text x="221.4" y="149" fill="#5f5b50" font-size="10.5">in / out / cache</text><text x="221.4" y="163" fill="#5f5b50" font-size="10.5">tokens</text><path d="M346.8 136.5 H374.8" stroke="#b3ab99" stroke-width="1.7" fill="none" marker-end="url(#ah)"/><rect x="378.8" y="70" width="142.4" height="133" rx="11" fill="#f6efe2" stroke="#a96a12" stroke-width="1.8"/><text x="397.8" y="95" fill="#1f1d18" font-size="13" font-weight="700">Lambda (daily)</text><text x="397.8" y="118" fill="#5f5b50" font-size="10.5">EventBridge cron</text><text x="397.8" y="132" fill="#5f5b50" font-size="10.5">00:00</text><text x="397.8" y="146" fill="#5f5b50" font-size="10.5">Logs Insights</text><text x="397.8" y="160" fill="#5f5b50" font-size="10.5">queries</text><text x="397.8" y="174" fill="#5f5b50" font-size="10.5">cost calc ·</text><text x="397.8" y="188" fill="#5f5b50" font-size="10.5">pricing.json</text><path d="M523.2 136.5 H551.2" stroke="#b3ab99" stroke-width="1.7" fill="none" marker-end="url(#ah)"/><rect x="555.2" y="70" width="142.4" height="133" rx="11" fill="#f4f0e7" stroke="#e6e0d3" stroke-width="1.5"/><rect x="555.2" y="70" width="5" height="133" rx="2.5" fill="#4a55b8"/><text x="574.2" y="95" fill="#1f1d18" font-size="13" font-weight="700">Custom Metrics</text><text x="574.2" y="118" fill="#5f5b50" font-size="10.5">Custom/BedrockCost</text><text x="574.2" y="132" fill="#5f5b50" font-size="10.5">per model · per</text><text x="574.2" y="146" fill="#5f5b50" font-size="10.5">user</text><path d="M699.6 136.5 H727.6" stroke="#b3ab99" stroke-width="1.7" fill="none" marker-end="url(#ah)"/><rect x="731.6" y="70" width="142.4" height="133" rx="11" fill="#f4f0e7" stroke="#e6e0d3" stroke-width="1.5"/><rect x="731.6" y="70" width="5" height="133" rx="2.5" fill="#1d7a44"/><text x="750.6" y="95" fill="#1f1d18" font-size="13" font-weight="700">Dashboard +</text><text x="750.6" y="112" fill="#1f1d18" font-size="13" font-weight="700">Slack</text><text x="750.6" y="135" fill="#5f5b50" font-size="10.5">cost / token</text><text x="750.6" y="149" fill="#5f5b50" font-size="10.5">widgets</text><text x="750.6" y="163" fill="#5f5b50" font-size="10.5">daily team report</text><rect x="26" y="227" width="255" height="26" rx="7" fill="#ece7db" stroke="#e6e0d3" stroke-width="1"/><text x="39" y="244" fill="#3a362c" font-size="10">● cache-token pricing (0.1x / 1.25x)</text><rect x="291" y="227" width="223" height="26" rx="7" fill="#ece7db" stroke="#e6e0d3" stroke-width="1"/><text x="304" y="244" fill="#3a362c" font-size="10">● per-user IAM cost attribution</text><rect x="524" y="227" width="178" height="26" rx="7" fill="#ece7db" stroke="#e6e0d3" stroke-width="1"/><text x="537" y="244" fill="#3a362c" font-size="10">● 90%+ vs actual billing</text><rect x="26" y="261" width="204" height="26" rx="7" fill="#ece7db" stroke="#e6e0d3" stroke-width="1"/><text x="39" y="278" fill="#3a362c" font-size="10">● org cost-optimization tool</text></svg>
