<svg xmlns="http://www.w3.org/2000/svg" viewBox="0 0 900 298" font-family="'JetBrains Mono',ui-monospace,Menlo,monospace" role="img" aria-label="AWS Bedrock — LLM Cost &amp; Usage Observability"><defs><marker id="ah" viewBox="0 0 10 10" refX="8" refY="5" markerWidth="7" markerHeight="7" orient="auto-start-reverse"><path d="M0 0L10 5L0 10z" fill="#5b677d"/></marker></defs><rect width="900" height="298" fill="#0b1020"/><text x="26" y="32" fill="#22d3ee" font-size="15" font-weight="700">AWS Bedrock — LLM Cost &amp; Usage Observability</text><text x="26" y="51" fill="#7d8ba5" font-size="10.5">daily multi-region batch · token-level cost attribution · Terraform IaC</text><rect x="26" y="70" width="156" height="132" rx="11" fill="#131a2e" stroke="#1e293b" stroke-width="1.5"/><rect x="26" y="70" width="5" height="132" rx="2.5" fill="#22d3ee"/><text x="44" y="94" fill="#e2e8f0" font-size="13" font-weight="700">Bedrock</text><text x="44" y="111" fill="#e2e8f0" font-size="13" font-weight="700">invocations</text><text x="44" y="134" fill="#9fb0c3" font-size="10.5">multi-region model</text><text x="44" y="148" fill="#9fb0c3" font-size="10.5">calls (2 regions)</text><rect x="198" y="70" width="156" height="132" rx="11" fill="#131a2e" stroke="#1e293b" stroke-width="1.5"/><rect x="198" y="70" width="5" height="132" rx="2.5" fill="#a78bfa"/><text x="216" y="94" fill="#e2e8f0" font-size="13" font-weight="700">CloudWatch Logs</text><text x="216" y="117" fill="#9fb0c3" font-size="10.5">ModelInvocationLog:</text><text x="216" y="131" fill="#9fb0c3" font-size="10.5">in / out / cache</text><text x="216" y="145" fill="#9fb0c3" font-size="10.5">tokens</text><rect x="370" y="70" width="156" height="132" rx="11" fill="#10241f" stroke="#3fb950" stroke-width="1.8"/><text x="386" y="94" fill="#f0f9ff" font-size="13" font-weight="700">EventBridge cron</text><text x="386" y="111" fill="#f0f9ff" font-size="13" font-weight="700">→ Lambda</text><text x="386" y="134" fill="#c8d6e5" font-size="10.5">daily · Logs</text><text x="386" y="148" fill="#c8d6e5" font-size="10.5">Insights · parallel</text><text x="386" y="162" fill="#c8d6e5" font-size="10.5">multi-region · cost</text><text x="386" y="176" fill="#c8d6e5" font-size="10.5">calc from</text><text x="386" y="190" fill="#c8d6e5" font-size="10.5">pricing.json</text><rect x="542" y="70" width="156" height="132" rx="11" fill="#131a2e" stroke="#1e293b" stroke-width="1.5"/><rect x="542" y="70" width="5" height="132" rx="2.5" fill="#f59e0b"/><text x="560" y="94" fill="#e2e8f0" font-size="13" font-weight="700">Custom CW</text><text x="560" y="111" fill="#e2e8f0" font-size="13" font-weight="700">Metrics</text><text x="560" y="134" fill="#9fb0c3" font-size="10.5">Custom/BedrockCost:</text><text x="560" y="148" fill="#9fb0c3" font-size="10.5">per model · per user</text><rect x="714" y="70" width="156" height="132" rx="11" fill="#131a2e" stroke="#1e293b" stroke-width="1.5"/><rect x="714" y="70" width="5" height="132" rx="2.5" fill="#22d3ee"/><text x="732" y="94" fill="#e2e8f0" font-size="13" font-weight="700">Outputs</text><text x="732" y="117" fill="#9fb0c3" font-size="10.5">CloudWatch dashboard</text><text x="732" y="131" fill="#9fb0c3" font-size="10.5">+ Slack daily report</text><path d="M182 136 H198" stroke="#5b677d" stroke-width="1.7" fill="none" marker-end="url(#ah)"/><path d="M354 136 H370" stroke="#5b677d" stroke-width="1.7" fill="none" marker-end="url(#ah)"/><path d="M526 136 H542" stroke="#5b677d" stroke-width="1.7" fill="none" marker-end="url(#ah)"/><path d="M698 136 H714" stroke="#5b677d" stroke-width="1.7" fill="none" marker-end="url(#ah)"/><rect x="26" y="226" width="196" height="26" rx="7" fill="#0f1626" stroke="#1e293b" stroke-width="1"/><text x="39" y="243" fill="#cbd5e1" font-size="10">● token-level cost per request</text><rect x="230" y="226" width="214" height="26" rx="7" fill="#0f1626" stroke="#1e293b" stroke-width="1"/><text x="243" y="243" fill="#cbd5e1" font-size="10">● per-user / per-team attribution</text><rect x="452" y="226" width="220" height="26" rx="7" fill="#0f1626" stroke="#1e293b" stroke-width="1"/><text x="465" y="243" fill="#cbd5e1" font-size="10">● cache-token pricing 0.1x / 1.25x</text><rect x="26" y="258" width="232" height="26" rx="7" fill="#0f1626" stroke="#1e293b" stroke-width="1"/><text x="39" y="275" fill="#cbd5e1" font-size="10">● long-context pricing &gt; 200K tokens</text></svg>