<svg xmlns="http://www.w3.org/2000/svg" viewBox="0 0 900 312" font-family="'JetBrains Mono',ui-monospace,Menlo,monospace" role="img" aria-label="Inferit — svnet3 Build &amp; Distributed Inference"><defs><marker id="ah" viewBox="0 0 10 10" refX="8" refY="5" markerWidth="7" markerHeight="7" orient="auto-start-reverse"><path d="M0 0L10 5L0 10z" fill="#5b677d"/></marker></defs><rect width="900" height="312" fill="#0b1020"/><text x="26" y="32" fill="#22d3ee" font-size="15" font-weight="700">Inferit — svnet3 Build &amp; Distributed Inference</text><text x="26" y="51" fill="#7d8ba5" font-size="10.5">SVEvalFlow component · FastAPI BFF · Airflow → KubernetesPodOperator GPU fan-out</text><rect x="26" y="70" width="128" height="146" rx="11" fill="#131a2e" stroke="#1e293b" stroke-width="1.5"/><rect x="26" y="70" width="5" height="146" rx="2.5" fill="#22d3ee"/><text x="44" y="94" fill="#e2e8f0" font-size="13" font-weight="700">Entry</text><text x="44" y="117" fill="#9fb0c3" font-size="10.5">Engineer UI /</text><text x="44" y="131" fill="#9fb0c3" font-size="10.5">PRISM / EDD /</text><text x="44" y="145" fill="#9fb0c3" font-size="10.5">MTBF / CLI</text><rect x="170" y="70" width="128" height="146" rx="11" fill="#1c1733" stroke="#a78bfa" stroke-width="1.8"/><text x="186" y="94" fill="#f0f9ff" font-size="13" font-weight="700">Inferit BFF</text><text x="186" y="117" fill="#c8d6e5" font-size="10.5">FastAPI +</text><text x="186" y="131" fill="#c8d6e5" font-size="10.5">Postgres: jobs ·</text><text x="186" y="145" fill="#c8d6e5" font-size="10.5">profiles ·</text><text x="186" y="159" fill="#c8d6e5" font-size="10.5">idempotency</text><rect x="314" y="70" width="128" height="146" rx="11" fill="#131a2e" stroke="#1e293b" stroke-width="1.5"/><rect x="314" y="70" width="5" height="146" rx="2.5" fill="#3fb950"/><text x="332" y="94" fill="#e2e8f0" font-size="13" font-weight="700">Airflow</text><text x="332" y="111" fill="#e2e8f0" font-size="13" font-weight="700">svnet_infere</text><text x="332" y="128" fill="#e2e8f0" font-size="13" font-weight="700">nce</text><text x="332" y="151" fill="#9fb0c3" font-size="10.5">parse_conf</text><text x="332" y="165" fill="#9fb0c3" font-size="10.5">envelope</text><text x="332" y="179" fill="#9fb0c3" font-size="10.5">fan-out · pool</text><text x="332" y="193" fill="#9fb0c3" font-size="10.5">inferit-high ·</text><text x="332" y="207" fill="#9fb0c3" font-size="10.5">GPU cap</text><rect x="458" y="70" width="128" height="146" rx="11" fill="#131a2e" stroke="#1e293b" stroke-width="1.5"/><rect x="458" y="70" width="5" height="146" rx="2.5" fill="#f59e0b"/><text x="476" y="94" fill="#e2e8f0" font-size="13" font-weight="700">K8s GPU pods</text><text x="476" y="117" fill="#9fb0c3" font-size="10.5">KPO: init →</text><text x="476" y="131" fill="#9fb0c3" font-size="10.5">engine →</text><text x="476" y="145" fill="#9fb0c3" font-size="10.5">sidecar</text><rect x="602" y="70" width="128" height="146" rx="11" fill="#131a2e" stroke="#1e293b" stroke-width="1.5"/><rect x="602" y="70" width="5" height="146" rx="2.5" fill="#22d3ee"/><text x="620" y="94" fill="#e2e8f0" font-size="13" font-weight="700">Artifacts</text><text x="620" y="117" fill="#9fb0c3" font-size="10.5">lakeFS · Harbor</text><text x="620" y="131" fill="#9fb0c3" font-size="10.5">· MLflow ·</text><text x="620" y="145" fill="#9fb0c3" font-size="10.5">Postgres</text><rect x="746" y="70" width="128" height="146" rx="11" fill="#131a2e" stroke="#1e293b" stroke-width="1.5"/><rect x="746" y="70" width="5" height="146" rx="2.5" fill="#a78bfa"/><text x="764" y="94" fill="#e2e8f0" font-size="13" font-weight="700">Callback</text><text x="764" y="117" fill="#9fb0c3" font-size="10.5">status back to</text><text x="764" y="131" fill="#9fb0c3" font-size="10.5">caller</text><path d="M154 143 H170" stroke="#5b677d" stroke-width="1.7" fill="none" marker-end="url(#ah)"/><path d="M298 143 H314" stroke="#5b677d" stroke-width="1.7" fill="none" marker-end="url(#ah)"/><path d="M442 143 H458" stroke="#5b677d" stroke-width="1.7" fill="none" marker-end="url(#ah)"/><path d="M586 143 H602" stroke="#5b677d" stroke-width="1.7" fill="none" marker-end="url(#ah)"/><path d="M730 143 H746" stroke="#5b677d" stroke-width="1.7" fill="none" marker-end="url(#ah)"/><rect x="26" y="240" width="226" height="26" rx="7" fill="#0f1626" stroke="#1e293b" stroke-width="1"/><text x="39" y="257" fill="#cbd5e1" font-size="10">● builds svnet3 across many configs</text><rect x="260" y="240" width="250" height="26" rx="7" fill="#0f1626" stroke="#1e293b" stroke-width="1"/><text x="273" y="257" fill="#cbd5e1" font-size="10">● option-file / camera-param versioning</text><rect x="518" y="240" width="178" height="26" rx="7" fill="#0f1626" stroke="#1e293b" stroke-width="1"/><text x="531" y="257" fill="#cbd5e1" font-size="10">● distributed: 6mo to 1.5mo</text><rect x="26" y="272" width="196" height="26" rx="7" fill="#0f1626" stroke="#1e293b" stroke-width="1"/><text x="39" y="289" fill="#cbd5e1" font-size="10">● idempotency + reconciliation</text></svg>