<svg xmlns="http://www.w3.org/2000/svg" viewBox="0 0 900 308" font-family="'JetBrains Mono',ui-monospace,Menlo,monospace" role="img" aria-label="Inferit — svnet3 Build &amp; Distributed Inference"><defs><marker id="ah" viewBox="0 0 10 10" refX="8" refY="5" markerWidth="7" markerHeight="7" orient="auto-start-reverse"><path d="M0 0L10 5L0 10z" fill="#5b677d"/></marker></defs><rect width="900" height="308" fill="#0b1020"/><text x="26" y="32" fill="#22d3ee" font-size="15" font-weight="700">Inferit — svnet3 Build &amp; Distributed Inference</text><text x="26" y="51" fill="#7d8ba5" font-size="10.5">config/artifact management · Ray fan-out across cluster GPUs · EDD</text><rect x="26" y="70" width="113" height="136" rx="11" fill="#131a2e" stroke="#1e293b" stroke-width="1.5"/><rect x="26" y="70" width="5" height="136" rx="2.5" fill="#22d3ee"/><text x="45" y="95" fill="#e2e8f0" font-size="13" font-weight="700">Entry</text><text x="45" y="118" fill="#9fb0c3" font-size="10.5">Engineer /</text><text x="45" y="132" fill="#9fb0c3" font-size="10.5">PRISM</text><text x="45" y="146" fill="#9fb0c3" font-size="10.5">EDD / MTBF /</text><text x="45" y="160" fill="#9fb0c3" font-size="10.5">CLI</text><path d="M141 138 H169" stroke="#5b677d" stroke-width="1.7" fill="none" marker-end="url(#ah)"/><rect x="173" y="70" width="113" height="136" rx="11" fill="#131a2e" stroke="#1e293b" stroke-width="1.5"/><rect x="173" y="70" width="5" height="136" rx="2.5" fill="#a78bfa"/><text x="192" y="95" fill="#e2e8f0" font-size="13" font-weight="700">Inferit</text><text x="192" y="112" fill="#e2e8f0" font-size="13" font-weight="700">BFF</text><text x="192" y="135" fill="#9fb0c3" font-size="10.5">FastAPI +</text><text x="192" y="149" fill="#9fb0c3" font-size="10.5">Postgres</text><text x="192" y="163" fill="#9fb0c3" font-size="10.5">jobs ·</text><text x="192" y="177" fill="#9fb0c3" font-size="10.5">profiles ·</text><text x="192" y="191" fill="#9fb0c3" font-size="10.5">idem</text><path d="M288 138 H316" stroke="#5b677d" stroke-width="1.7" fill="none" marker-end="url(#ah)"/><rect x="320" y="70" width="113" height="136" rx="11" fill="#131a2e" stroke="#1e293b" stroke-width="1.5"/><rect x="320" y="70" width="5" height="136" rx="2.5" fill="#22d3ee"/><text x="339" y="95" fill="#e2e8f0" font-size="13" font-weight="700">Airflow</text><text x="339" y="112" fill="#e2e8f0" font-size="13" font-weight="700">svnet_infe</text><text x="339" y="129" fill="#e2e8f0" font-size="13" font-weight="700">rence</text><text x="339" y="152" fill="#9fb0c3" font-size="10.5">envelope</text><text x="339" y="166" fill="#9fb0c3" font-size="10.5">fan-out</text><text x="339" y="180" fill="#9fb0c3" font-size="10.5">16-GPU cap</text><path d="M435 138 H463" stroke="#5b677d" stroke-width="1.7" fill="none" marker-end="url(#ah)"/><rect x="467" y="70" width="113" height="136" rx="11" fill="#10241f" stroke="#3fb950" stroke-width="1.8"/><text x="486" y="95" fill="#e9fbff" font-size="13" font-weight="700">K8s GPU</text><text x="486" y="112" fill="#e9fbff" font-size="13" font-weight="700">pods</text><text x="486" y="135" fill="#bfe9d4" font-size="10.5">init →</text><text x="486" y="149" fill="#bfe9d4" font-size="10.5">engine</text><text x="486" y="163" fill="#bfe9d4" font-size="10.5">→ sidecar</text><path d="M582 138 H610" stroke="#5b677d" stroke-width="1.7" fill="none" marker-end="url(#ah)"/><rect x="614" y="70" width="113" height="136" rx="11" fill="#131a2e" stroke="#1e293b" stroke-width="1.5"/><rect x="614" y="70" width="5" height="136" rx="2.5" fill="#f59e0b"/><text x="633" y="95" fill="#e2e8f0" font-size="13" font-weight="700">Artifacts</text><text x="633" y="118" fill="#9fb0c3" font-size="10.5">lakeFS ·</text><text x="633" y="132" fill="#9fb0c3" font-size="10.5">Harbor</text><text x="633" y="146" fill="#9fb0c3" font-size="10.5">MLflow ·</text><text x="633" y="160" fill="#9fb0c3" font-size="10.5">Postgres</text><path d="M729 138 H757" stroke="#5b677d" stroke-width="1.7" fill="none" marker-end="url(#ah)"/><rect x="761" y="70" width="113" height="136" rx="11" fill="#131a2e" stroke="#1e293b" stroke-width="1.5"/><rect x="761" y="70" width="5" height="136" rx="2.5" fill="#22d3ee"/><text x="780" y="95" fill="#e2e8f0" font-size="13" font-weight="700">Callback</text><text x="780" y="118" fill="#9fb0c3" font-size="10.5">to caller</text><rect x="26" y="230" width="226" height="26" rx="7" fill="#0f1626" stroke="#1e293b" stroke-width="1"/><text x="39" y="247" fill="#cbd5e1" font-size="10">● builds svnet3 across many configs</text><rect x="262" y="230" width="250" height="26" rx="7" fill="#0f1626" stroke="#1e293b" stroke-width="1"/><text x="275" y="247" fill="#cbd5e1" font-size="10">● option-file / camera-param versioning</text><rect x="522" y="230" width="232" height="26" rx="7" fill="#0f1626" stroke="#1e293b" stroke-width="1"/><text x="535" y="247" fill="#cbd5e1" font-size="10">● distributed/parallel: 6mo to 1.5mo</text><rect x="26" y="264" width="184" height="26" rx="7" fill="#0f1626" stroke="#1e293b" stroke-width="1"/><text x="39" y="281" fill="#cbd5e1" font-size="10">● EDD evaluation integration</text></svg>
