<svg xmlns="http://www.w3.org/2000/svg" viewBox="0 0 900 308" font-family="'IBM Plex Mono',ui-monospace,Menlo,monospace" role="img" aria-label="Inferit — svnet3 Build &amp; Distributed Inference"><defs><marker id="ah" viewBox="0 0 10 10" refX="8" refY="5" markerWidth="7" markerHeight="7" orient="auto-start-reverse"><path d="M0 0L10 5L0 10z" fill="#b3ab99"/></marker></defs><rect width="900" height="308" fill="#ffffff"/><text x="26" y="32" fill="#27317f" font-size="15" font-weight="700">Inferit — svnet3 Build &amp; Distributed Inference</text><text x="26" y="51" fill="#8b8675" font-size="10.5">config/artifact management · Ray fan-out across cluster GPUs · EDD</text><rect x="26" y="70" width="113" height="136" rx="11" fill="#f4f0e7" stroke="#e6e0d3" stroke-width="1.5"/><rect x="26" y="70" width="5" height="136" rx="2.5" fill="#2c7572"/><text x="45" y="95" fill="#1f1d18" font-size="13" font-weight="700">Entry</text><text x="45" y="118" fill="#5f5b50" font-size="10.5">Engineer /</text><text x="45" y="132" fill="#5f5b50" font-size="10.5">PRISM</text><text x="45" y="146" fill="#5f5b50" font-size="10.5">EDD / MTBF /</text><text x="45" y="160" fill="#5f5b50" font-size="10.5">CLI</text><path d="M141 138 H169" stroke="#b3ab99" stroke-width="1.7" fill="none" marker-end="url(#ah)"/><rect x="173" y="70" width="113" height="136" rx="11" fill="#f4f0e7" stroke="#e6e0d3" stroke-width="1.5"/><rect x="173" y="70" width="5" height="136" rx="2.5" fill="#4a55b8"/><text x="192" y="95" fill="#1f1d18" font-size="13" font-weight="700">Inferit</text><text x="192" y="112" fill="#1f1d18" font-size="13" font-weight="700">BFF</text><text x="192" y="135" fill="#5f5b50" font-size="10.5">FastAPI +</text><text x="192" y="149" fill="#5f5b50" font-size="10.5">Postgres</text><text x="192" y="163" fill="#5f5b50" font-size="10.5">jobs ·</text><text x="192" y="177" fill="#5f5b50" font-size="10.5">profiles ·</text><text x="192" y="191" fill="#5f5b50" font-size="10.5">idem</text><path d="M288 138 H316" stroke="#b3ab99" stroke-width="1.7" fill="none" marker-end="url(#ah)"/><rect x="320" y="70" width="113" height="136" rx="11" fill="#f4f0e7" stroke="#e6e0d3" stroke-width="1.5"/><rect x="320" y="70" width="5" height="136" rx="2.5" fill="#2c7572"/><text x="339" y="95" fill="#1f1d18" font-size="13" font-weight="700">Airflow</text><text x="339" y="112" fill="#1f1d18" font-size="13" font-weight="700">svnet_infe</text><text x="339" y="129" fill="#1f1d18" font-size="13" font-weight="700">rence</text><text x="339" y="152" fill="#5f5b50" font-size="10.5">envelope</text><text x="339" y="166" fill="#5f5b50" font-size="10.5">fan-out</text><text x="339" y="180" fill="#5f5b50" font-size="10.5">16-GPU cap</text><path d="M435 138 H463" stroke="#b3ab99" stroke-width="1.7" fill="none" marker-end="url(#ah)"/><rect x="467" y="70" width="113" height="136" rx="11" fill="#e7f2eb" stroke="#1d7a44" stroke-width="1.8"/><text x="486" y="95" fill="#1f1d18" font-size="13" font-weight="700">K8s GPU</text><text x="486" y="112" fill="#1f1d18" font-size="13" font-weight="700">pods</text><text x="486" y="135" fill="#5f5b50" font-size="10.5">init →</text><text x="486" y="149" fill="#5f5b50" font-size="10.5">engine</text><text x="486" y="163" fill="#5f5b50" font-size="10.5">→ sidecar</text><path d="M582 138 H610" stroke="#b3ab99" stroke-width="1.7" fill="none" marker-end="url(#ah)"/><rect x="614" y="70" width="113" height="136" rx="11" fill="#f4f0e7" stroke="#e6e0d3" stroke-width="1.5"/><rect x="614" y="70" width="5" height="136" rx="2.5" fill="#a96a12"/><text x="633" y="95" fill="#1f1d18" font-size="13" font-weight="700">Artifacts</text><text x="633" y="118" fill="#5f5b50" font-size="10.5">lakeFS ·</text><text x="633" y="132" fill="#5f5b50" font-size="10.5">Harbor</text><text x="633" y="146" fill="#5f5b50" font-size="10.5">MLflow ·</text><text x="633" y="160" fill="#5f5b50" font-size="10.5">Postgres</text><path d="M729 138 H757" stroke="#b3ab99" stroke-width="1.7" fill="none" marker-end="url(#ah)"/><rect x="761" y="70" width="113" height="136" rx="11" fill="#f4f0e7" stroke="#e6e0d3" stroke-width="1.5"/><rect x="761" y="70" width="5" height="136" rx="2.5" fill="#2c7572"/><text x="780" y="95" fill="#1f1d18" font-size="13" font-weight="700">Callback</text><text x="780" y="118" fill="#5f5b50" font-size="10.5">to caller</text><rect x="26" y="230" width="248" height="26" rx="7" fill="#ece7db" stroke="#e6e0d3" stroke-width="1"/><text x="39" y="247" fill="#3a362c" font-size="10">● builds svnet3 across many configs</text><rect x="284" y="230" width="274" height="26" rx="7" fill="#ece7db" stroke="#e6e0d3" stroke-width="1"/><text x="297" y="247" fill="#3a362c" font-size="10">● option-file / camera-param versioning</text><rect x="568" y="230" width="255" height="26" rx="7" fill="#ece7db" stroke="#e6e0d3" stroke-width="1"/><text x="581" y="247" fill="#3a362c" font-size="10">● distributed/parallel: 6mo to 1.5mo</text><rect x="26" y="264" width="204" height="26" rx="7" fill="#ece7db" stroke="#e6e0d3" stroke-width="1"/><text x="39" y="281" fill="#3a362c" font-size="10">● EDD evaluation integration</text></svg>
