<svg xmlns="http://www.w3.org/2000/svg" viewBox="0 0 900 704" font-family="'IBM Plex Mono',ui-monospace,Menlo,monospace" role="img" aria-label="MLOps Platform — Shared GPU Cluster &amp; SVEvalFlow"><defs><marker id="ah" viewBox="0 0 10 10" refX="8" refY="5" markerWidth="7" markerHeight="7" orient="auto-start-reverse"><path d="M0 0L10 5L0 10z" fill="#b3ab99"/></marker></defs><rect width="900" height="704" fill="#ffffff"/><text x="26" y="32" fill="#27317f" font-size="15" font-weight="700">MLOps Platform — Shared GPU Cluster &amp; SVEvalFlow</text><text x="26" y="51" fill="#8b8675" font-size="10.5">RKE2 Kubernetes · GitOps · co-designed (led scheduler &amp; queue policy)</text><text x="26" y="83" fill="#8b8675" font-size="10" font-weight="700" letter-spacing="1">SVEVALFLOW · inference / evaluation (sole owner)</text><rect x="26" y="90" width="260" height="77" rx="11" fill="#e7f2eb" stroke="#1d7a44" stroke-width="1.8"/><text x="45" y="115" fill="#1f1d18" font-size="13" font-weight="700">Inferit</text><text x="45" y="138" fill="#5f5b50" font-size="10.5">svnet3 build</text><text x="45" y="152" fill="#5f5b50" font-size="10.5">+ inference</text><rect x="320" y="90" width="260" height="77" rx="11" fill="#e7f2eb" stroke="#1d7a44" stroke-width="1.8"/><text x="339" y="115" fill="#1f1d18" font-size="13" font-weight="700">MTBF Validation</text><text x="339" y="138" fill="#5f5b50" font-size="10.5">AEB analysis</text><text x="339" y="152" fill="#5f5b50" font-size="10.5">at scale</text><rect x="614" y="90" width="260" height="77" rx="11" fill="#e7f2eb" stroke="#1d7a44" stroke-width="1.8"/><text x="633" y="115" fill="#1f1d18" font-size="13" font-weight="700">PRISM</text><text x="633" y="138" fill="#5f5b50" font-size="10.5">ISP convert</text><text x="633" y="152" fill="#5f5b50" font-size="10.5">+ re-sim</text><text x="26" y="226" fill="#8b8675" font-size="10" font-weight="700" letter-spacing="1">ORCHESTRATION &amp; MLOPS</text><rect x="26" y="233" width="113" height="94" rx="11" fill="#f4f0e7" stroke="#e6e0d3" stroke-width="1.5"/><rect x="26" y="233" width="5" height="94" rx="2.5" fill="#2c7572"/><text x="45" y="258" fill="#1f1d18" font-size="13" font-weight="700">Airflow</text><text x="45" y="281" fill="#5f5b50" font-size="10.5">DAG</text><text x="45" y="295" fill="#5f5b50" font-size="10.5">orchestratio</text><text x="45" y="309" fill="#5f5b50" font-size="10.5">n</text><rect x="173" y="233" width="113" height="94" rx="11" fill="#f4f0e7" stroke="#e6e0d3" stroke-width="1.5"/><rect x="173" y="233" width="5" height="94" rx="2.5" fill="#2c7572"/><text x="192" y="258" fill="#1f1d18" font-size="13" font-weight="700">Ray /</text><text x="192" y="275" fill="#1f1d18" font-size="13" font-weight="700">KubeRay</text><text x="192" y="298" fill="#5f5b50" font-size="10.5">distributed</text><text x="192" y="312" fill="#5f5b50" font-size="10.5">compute</text><rect x="320" y="233" width="113" height="94" rx="11" fill="#f4f0e7" stroke="#e6e0d3" stroke-width="1.5"/><rect x="320" y="233" width="5" height="94" rx="2.5" fill="#2c7572"/><text x="339" y="258" fill="#1f1d18" font-size="13" font-weight="700">KServe /</text><text x="339" y="275" fill="#1f1d18" font-size="13" font-weight="700">Knative</text><text x="339" y="298" fill="#5f5b50" font-size="10.5">scale-to-zero</text><text x="339" y="312" fill="#5f5b50" font-size="10.5">serve</text><rect x="467" y="233" width="113" height="94" rx="11" fill="#f4f0e7" stroke="#e6e0d3" stroke-width="1.5"/><rect x="467" y="233" width="5" height="94" rx="2.5" fill="#2c7572"/><text x="486" y="258" fill="#1f1d18" font-size="13" font-weight="700">MLflow</text><text x="486" y="281" fill="#5f5b50" font-size="10.5">registry /</text><text x="486" y="295" fill="#5f5b50" font-size="10.5">tracking</text><rect x="614" y="233" width="113" height="94" rx="11" fill="#f4f0e7" stroke="#e6e0d3" stroke-width="1.5"/><rect x="614" y="233" width="5" height="94" rx="2.5" fill="#2c7572"/><text x="633" y="258" fill="#1f1d18" font-size="13" font-weight="700">lakeFS</text><text x="633" y="281" fill="#5f5b50" font-size="10.5">versioned</text><text x="633" y="295" fill="#5f5b50" font-size="10.5">data</text><rect x="761" y="233" width="113" height="94" rx="11" fill="#f4f0e7" stroke="#e6e0d3" stroke-width="1.5"/><rect x="761" y="233" width="5" height="94" rx="2.5" fill="#2c7572"/><text x="780" y="258" fill="#1f1d18" font-size="13" font-weight="700">Harbor</text><text x="780" y="281" fill="#5f5b50" font-size="10.5">image</text><text x="780" y="295" fill="#5f5b50" font-size="10.5">registry</text><text x="26" y="386" fill="#8b8675" font-size="10" font-weight="700" letter-spacing="1">GITOPS &amp; SECRETS</text><rect x="26" y="393" width="186.5" height="80" rx="11" fill="#f4f0e7" stroke="#e6e0d3" stroke-width="1.5"/><rect x="26" y="393" width="5" height="80" rx="2.5" fill="#4a55b8"/><text x="45" y="418" fill="#1f1d18" font-size="13" font-weight="700">GitHub Actions</text><text x="45" y="441" fill="#5f5b50" font-size="10.5">build → registry</text><rect x="246.5" y="393" width="186.5" height="80" rx="11" fill="#f4f0e7" stroke="#e6e0d3" stroke-width="1.5"/><rect x="246.5" y="393" width="5" height="80" rx="2.5" fill="#4a55b8"/><text x="265.5" y="418" fill="#1f1d18" font-size="13" font-weight="700">ArgoCD</text><text x="265.5" y="441" fill="#5f5b50" font-size="10.5">app-of-apps sync</text><rect x="467" y="393" width="186.5" height="80" rx="11" fill="#f4f0e7" stroke="#e6e0d3" stroke-width="1.5"/><rect x="467" y="393" width="5" height="80" rx="2.5" fill="#4a55b8"/><text x="486" y="418" fill="#1f1d18" font-size="13" font-weight="700">External Secrets</text><text x="486" y="441" fill="#5f5b50" font-size="10.5">secret injection</text><rect x="687.5" y="393" width="186.5" height="80" rx="11" fill="#f4f0e7" stroke="#e6e0d3" stroke-width="1.5"/><rect x="687.5" y="393" width="5" height="80" rx="2.5" fill="#4a55b8"/><text x="706.5" y="418" fill="#1f1d18" font-size="13" font-weight="700">Grafana /</text><text x="706.5" y="435" fill="#1f1d18" font-size="13" font-weight="700">Prometheus</text><text x="706.5" y="458" fill="#5f5b50" font-size="10.5">observability</text><text x="26" y="532" fill="#8b8675" font-size="10" font-weight="700" letter-spacing="1">RKE2 CLUSTER + STORAGE</text><rect x="26" y="539" width="186.5" height="63" rx="11" fill="#f4f0e7" stroke="#e6e0d3" stroke-width="1.5"/><rect x="26" y="539" width="5" height="63" rx="2.5" fill="#a96a12"/><text x="45" y="564" fill="#1f1d18" font-size="13" font-weight="700">Control plane</text><text x="45" y="587" fill="#5f5b50" font-size="10.5">K8s API</text><rect x="246.5" y="539" width="186.5" height="63" rx="11" fill="#f4f0e7" stroke="#e6e0d3" stroke-width="1.5"/><rect x="246.5" y="539" width="5" height="63" rx="2.5" fill="#a96a12"/><text x="265.5" y="564" fill="#1f1d18" font-size="13" font-weight="700">GPU workers</text><text x="265.5" y="587" fill="#5f5b50" font-size="10.5">60+ heterogeneous</text><rect x="467" y="539" width="186.5" height="63" rx="11" fill="#f4f0e7" stroke="#e6e0d3" stroke-width="1.5"/><rect x="467" y="539" width="5" height="63" rx="2.5" fill="#a96a12"/><text x="486" y="564" fill="#1f1d18" font-size="13" font-weight="700">Service nodes</text><text x="486" y="587" fill="#5f5b50" font-size="10.5">platform UIs</text><rect x="687.5" y="539" width="186.5" height="63" rx="11" fill="#f4f0e7" stroke="#e6e0d3" stroke-width="1.5"/><rect x="687.5" y="539" width="5" height="63" rx="2.5" fill="#a96a12"/><text x="706.5" y="564" fill="#1f1d18" font-size="13" font-weight="700">Object store + NFS</text><text x="706.5" y="587" fill="#5f5b50" font-size="10.5">artifacts / data</text><rect x="26" y="626" width="261" height="26" rx="7" fill="#ece7db" stroke="#e6e0d3" stroke-width="1"/><text x="39" y="643" fill="#3a362c" font-size="10">● led scheduler &amp; queue policy design</text><rect x="297" y="626" width="255" height="26" rx="7" fill="#ece7db" stroke="#e6e0d3" stroke-width="1"/><text x="310" y="643" fill="#3a362c" font-size="10">● Scale-to-Zero serverless inference</text><rect x="562" y="626" width="274" height="26" rx="7" fill="#ece7db" stroke="#e6e0d3" stroke-width="1"/><text x="575" y="643" fill="#3a362c" font-size="10">● dev/prod isolation (quota · priority)</text><rect x="26" y="660" width="319" height="26" rx="7" fill="#ece7db" stroke="#e6e0d3" stroke-width="1"/><text x="39" y="677" fill="#3a362c" font-size="10">● GitOps: GitHub → registry → ArgoCD → cluster</text></svg>
