<svg xmlns="http://www.w3.org/2000/svg" viewBox="0 0 900 298" font-family="'JetBrains Mono',ui-monospace,Menlo,monospace" role="img" aria-label="MTBF Validation — Large-Scale Reliability Pipeline"><defs><marker id="ah" viewBox="0 0 10 10" refX="8" refY="5" markerWidth="7" markerHeight="7" orient="auto-start-reverse"><path d="M0 0L10 5L0 10z" fill="#5b677d"/></marker></defs><rect width="900" height="298" fill="#0b1020"/><text x="26" y="32" fill="#22d3ee" font-size="15" font-weight="700">MTBF Validation — Large-Scale Reliability Pipeline</text><text x="26" y="51" fill="#7d8ba5" font-size="10.5">SVEvalFlow component · Airflow fan-out · AEB evaluation · Gemini-assisted inspection</text><rect x="26" y="70" width="128" height="132" rx="11" fill="#131a2e" stroke="#1e293b" stroke-width="1.5"/><rect x="26" y="70" width="5" height="132" rx="2.5" fill="#22d3ee"/><text x="44" y="94" fill="#e2e8f0" font-size="13" font-weight="700">Command /</text><text x="44" y="111" fill="#e2e8f0" font-size="13" font-weight="700">ticket</text><text x="44" y="134" fill="#9fb0c3" font-size="10.5">FastAPI backend</text><text x="44" y="148" fill="#9fb0c3" font-size="10.5">· jobs in</text><text x="44" y="162" fill="#9fb0c3" font-size="10.5">Postgres</text><rect x="170" y="70" width="128" height="132" rx="11" fill="#131a2e" stroke="#1e293b" stroke-width="1.5"/><rect x="170" y="70" width="5" height="132" rx="2.5" fill="#a78bfa"/><text x="188" y="94" fill="#e2e8f0" font-size="13" font-weight="700">Airflow</text><text x="188" y="111" fill="#e2e8f0" font-size="13" font-weight="700">mtbf_validat</text><text x="188" y="128" fill="#e2e8f0" font-size="13" font-weight="700">ion</text><text x="188" y="151" fill="#9fb0c3" font-size="10.5">GPU-branch</text><text x="188" y="165" fill="#9fb0c3" font-size="10.5">select · max</text><text x="188" y="179" fill="#9fb0c3" font-size="10.5">200 tasks</text><rect x="314" y="70" width="128" height="132" rx="11" fill="#10241f" stroke="#3fb950" stroke-width="1.8"/><text x="330" y="94" fill="#f0f9ff" font-size="13" font-weight="700">GPU pods</text><text x="330" y="117" fill="#c8d6e5" font-size="10.5">SVNet3 inference</text><text x="330" y="131" fill="#c8d6e5" font-size="10.5">· KPO fan-out</text><rect x="458" y="70" width="128" height="132" rx="11" fill="#131a2e" stroke="#1e293b" stroke-width="1.5"/><rect x="458" y="70" width="5" height="132" rx="2.5" fill="#f59e0b"/><text x="476" y="94" fill="#e2e8f0" font-size="13" font-weight="700">AEB</text><text x="476" y="111" fill="#e2e8f0" font-size="13" font-weight="700">evaluation</text><text x="476" y="134" fill="#9fb0c3" font-size="10.5">9 configs = 3</text><text x="476" y="148" fill="#9fb0c3" font-size="10.5">TTC × 3</text><text x="476" y="162" fill="#9fb0c3" font-size="10.5">consecutive</text><text x="476" y="176" fill="#9fb0c3" font-size="10.5">frames</text><rect x="602" y="70" width="128" height="132" rx="11" fill="#131a2e" stroke="#1e293b" stroke-width="1.5"/><rect x="602" y="70" width="5" height="132" rx="2.5" fill="#22d3ee"/><text x="620" y="94" fill="#e2e8f0" font-size="13" font-weight="700">Visual</text><text x="620" y="111" fill="#e2e8f0" font-size="13" font-weight="700">inspection</text><text x="620" y="134" fill="#9fb0c3" font-size="10.5">+ Gemini assist</text><rect x="746" y="70" width="128" height="132" rx="11" fill="#131a2e" stroke="#1e293b" stroke-width="1.5"/><rect x="746" y="70" width="5" height="132" rx="2.5" fill="#a78bfa"/><text x="764" y="94" fill="#e2e8f0" font-size="13" font-weight="700">PostgreSQL +</text><text x="764" y="111" fill="#e2e8f0" font-size="13" font-weight="700">dashboard</text><text x="764" y="134" fill="#9fb0c3" font-size="10.5">Redis cache</text><path d="M154 136 H170" stroke="#5b677d" stroke-width="1.7" fill="none" marker-end="url(#ah)"/><path d="M298 136 H314" stroke="#5b677d" stroke-width="1.7" fill="none" marker-end="url(#ah)"/><path d="M442 136 H458" stroke="#5b677d" stroke-width="1.7" fill="none" marker-end="url(#ah)"/><path d="M586 136 H602" stroke="#5b677d" stroke-width="1.7" fill="none" marker-end="url(#ah)"/><path d="M730 136 H746" stroke="#5b677d" stroke-width="1.7" fill="none" marker-end="url(#ah)"/><rect x="26" y="226" width="208" height="26" rx="7" fill="#0f1626" stroke="#1e293b" stroke-width="1"/><text x="39" y="243" fill="#cbd5e1" font-size="10">● 173,101 clips · 99.97% success</text><rect x="242" y="226" width="232" height="26" rx="7" fill="#0f1626" stroke="#1e293b" stroke-width="1"/><text x="255" y="243" fill="#cbd5e1" font-size="10">● +205% throughput vs single machine</text><rect x="482" y="226" width="244" height="26" rx="7" fill="#0f1626" stroke="#1e293b" stroke-width="1"/><text x="495" y="243" fill="#cbd5e1" font-size="10">● automation → single-person operation</text><rect x="26" y="258" width="190" height="26" rx="7" fill="#0f1626" stroke="#1e293b" stroke-width="1"/><text x="39" y="275" fill="#cbd5e1" font-size="10">● Gemini auto-FP on Vertex AI</text></svg>