<svg xmlns="http://www.w3.org/2000/svg" viewBox="0 0 900 297" font-family="'IBM Plex Mono',ui-monospace,Menlo,monospace" role="img" aria-label="MTBF Validation — Large-Scale Reliability Pipeline"><defs><marker id="ah" viewBox="0 0 10 10" refX="8" refY="5" markerWidth="7" markerHeight="7" orient="auto-start-reverse"><path d="M0 0L10 5L0 10z" fill="#b3ab99"/></marker></defs><rect width="900" height="297" fill="#ffffff"/><text x="26" y="32" fill="#27317f" font-size="15" font-weight="700">MTBF Validation — Large-Scale Reliability Pipeline</text><text x="26" y="51" fill="#8b8675" font-size="10.5">release-gated svnet3 inference + AEB analysis at scale</text><rect x="26" y="70" width="113" height="125" rx="11" fill="#f4f0e7" stroke="#e6e0d3" stroke-width="1.5"/><rect x="26" y="70" width="5" height="125" rx="2.5" fill="#2c7572"/><text x="45" y="95" fill="#1f1d18" font-size="13" font-weight="700">Command /</text><text x="45" y="112" fill="#1f1d18" font-size="13" font-weight="700">ticket</text><text x="45" y="135" fill="#5f5b50" font-size="10.5">validation</text><text x="45" y="149" fill="#5f5b50" font-size="10.5">request</text><path d="M141 132.5 H169" stroke="#b3ab99" stroke-width="1.7" fill="none" marker-end="url(#ah)"/><rect x="173" y="70" width="113" height="125" rx="11" fill="#f4f0e7" stroke="#e6e0d3" stroke-width="1.5"/><rect x="173" y="70" width="5" height="125" rx="2.5" fill="#4a55b8"/><text x="192" y="95" fill="#1f1d18" font-size="13" font-weight="700">Airflow</text><text x="192" y="112" fill="#1f1d18" font-size="13" font-weight="700">mtbf_valid</text><text x="192" y="129" fill="#1f1d18" font-size="13" font-weight="700">ation</text><text x="192" y="152" fill="#5f5b50" font-size="10.5">DAG</text><text x="192" y="166" fill="#5f5b50" font-size="10.5">orchestratio</text><text x="192" y="180" fill="#5f5b50" font-size="10.5">n</text><path d="M288 132.5 H316" stroke="#b3ab99" stroke-width="1.7" fill="none" marker-end="url(#ah)"/><rect x="320" y="70" width="113" height="125" rx="11" fill="#e7f2eb" stroke="#1d7a44" stroke-width="1.8"/><text x="339" y="95" fill="#1f1d18" font-size="13" font-weight="700">GPU pods</text><text x="339" y="118" fill="#5f5b50" font-size="10.5">SVNet3</text><text x="339" y="132" fill="#5f5b50" font-size="10.5">inference</text><text x="339" y="146" fill="#5f5b50" font-size="10.5">KPO fan-out</text><path d="M435 132.5 H463" stroke="#b3ab99" stroke-width="1.7" fill="none" marker-end="url(#ah)"/><rect x="467" y="70" width="113" height="125" rx="11" fill="#f4f0e7" stroke="#e6e0d3" stroke-width="1.5"/><rect x="467" y="70" width="5" height="125" rx="2.5" fill="#a96a12"/><text x="486" y="95" fill="#1f1d18" font-size="13" font-weight="700">AEB</text><text x="486" y="112" fill="#1f1d18" font-size="13" font-weight="700">evaluation</text><text x="486" y="135" fill="#5f5b50" font-size="10.5">9 configs</text><text x="486" y="149" fill="#5f5b50" font-size="10.5">3 TTC × 3</text><text x="486" y="163" fill="#5f5b50" font-size="10.5">frames</text><path d="M582 132.5 H610" stroke="#b3ab99" stroke-width="1.7" fill="none" marker-end="url(#ah)"/><rect x="614" y="70" width="113" height="125" rx="11" fill="#f4f0e7" stroke="#e6e0d3" stroke-width="1.5"/><rect x="614" y="70" width="5" height="125" rx="2.5" fill="#2c7572"/><text x="633" y="95" fill="#1f1d18" font-size="13" font-weight="700">Visual</text><text x="633" y="112" fill="#1f1d18" font-size="13" font-weight="700">Inspection</text><text x="633" y="135" fill="#5f5b50" font-size="10.5">+ Gemini</text><text x="633" y="149" fill="#5f5b50" font-size="10.5">assist</text><path d="M729 132.5 H757" stroke="#b3ab99" stroke-width="1.7" fill="none" marker-end="url(#ah)"/><rect x="761" y="70" width="113" height="125" rx="11" fill="#f4f0e7" stroke="#e6e0d3" stroke-width="1.5"/><rect x="761" y="70" width="5" height="125" rx="2.5" fill="#2c7572"/><text x="780" y="95" fill="#1f1d18" font-size="13" font-weight="700">PostgreSQL</text><text x="780" y="112" fill="#1f1d18" font-size="13" font-weight="700">+</text><text x="780" y="129" fill="#1f1d18" font-size="13" font-weight="700">dashboard</text><text x="780" y="152" fill="#5f5b50" font-size="10.5">Redis cache</text><rect x="26" y="219" width="229" height="26" rx="7" fill="#ece7db" stroke="#e6e0d3" stroke-width="1"/><text x="39" y="236" fill="#3a362c" font-size="10">● 173,101 clips · 99.97% success</text><rect x="265" y="219" width="255" height="26" rx="7" fill="#ece7db" stroke="#e6e0d3" stroke-width="1"/><text x="278" y="236" fill="#3a362c" font-size="10">● +205% throughput vs single machine</text><rect x="530" y="219" width="261" height="26" rx="7" fill="#ece7db" stroke="#e6e0d3" stroke-width="1"/><text x="543" y="236" fill="#3a362c" font-size="10">● automation: single-person operation</text><rect x="26" y="253" width="287" height="26" rx="7" fill="#ece7db" stroke="#e6e0d3" stroke-width="1"/><text x="39" y="270" fill="#3a362c" font-size="10">● Gemini auto-FP on Vertex AI (see GenAI)</text></svg>
