<svg xmlns="http://www.w3.org/2000/svg" viewBox="0 0 900 297" font-family="'JetBrains Mono',ui-monospace,Menlo,monospace" role="img" aria-label="MTBF Validation — Large-Scale Reliability Pipeline"><defs><marker id="ah" viewBox="0 0 10 10" refX="8" refY="5" markerWidth="7" markerHeight="7" orient="auto-start-reverse"><path d="M0 0L10 5L0 10z" fill="#5b677d"/></marker></defs><rect width="900" height="297" fill="#0b1020"/><text x="26" y="32" fill="#22d3ee" font-size="15" font-weight="700">MTBF Validation — Large-Scale Reliability Pipeline</text><text x="26" y="51" fill="#7d8ba5" font-size="10.5">release-gated svnet3 inference + AEB analysis at scale</text><rect x="26" y="70" width="113" height="125" rx="11" fill="#131a2e" stroke="#1e293b" stroke-width="1.5"/><rect x="26" y="70" width="5" height="125" rx="2.5" fill="#22d3ee"/><text x="45" y="95" fill="#e2e8f0" font-size="13" font-weight="700">Command /</text><text x="45" y="112" fill="#e2e8f0" font-size="13" font-weight="700">ticket</text><text x="45" y="135" fill="#9fb0c3" font-size="10.5">validation</text><text x="45" y="149" fill="#9fb0c3" font-size="10.5">request</text><path d="M141 132.5 H169" stroke="#5b677d" stroke-width="1.7" fill="none" marker-end="url(#ah)"/><rect x="173" y="70" width="113" height="125" rx="11" fill="#131a2e" stroke="#1e293b" stroke-width="1.5"/><rect x="173" y="70" width="5" height="125" rx="2.5" fill="#a78bfa"/><text x="192" y="95" fill="#e2e8f0" font-size="13" font-weight="700">Airflow</text><text x="192" y="112" fill="#e2e8f0" font-size="13" font-weight="700">mtbf_valid</text><text x="192" y="129" fill="#e2e8f0" font-size="13" font-weight="700">ation</text><text x="192" y="152" fill="#9fb0c3" font-size="10.5">DAG</text><text x="192" y="166" fill="#9fb0c3" font-size="10.5">orchestratio</text><text x="192" y="180" fill="#9fb0c3" font-size="10.5">n</text><path d="M288 132.5 H316" stroke="#5b677d" stroke-width="1.7" fill="none" marker-end="url(#ah)"/><rect x="320" y="70" width="113" height="125" rx="11" fill="#10241f" stroke="#3fb950" stroke-width="1.8"/><text x="339" y="95" fill="#e9fbff" font-size="13" font-weight="700">GPU pods</text><text x="339" y="118" fill="#bfe9d4" font-size="10.5">SVNet3</text><text x="339" y="132" fill="#bfe9d4" font-size="10.5">inference</text><text x="339" y="146" fill="#bfe9d4" font-size="10.5">KPO fan-out</text><path d="M435 132.5 H463" stroke="#5b677d" stroke-width="1.7" fill="none" marker-end="url(#ah)"/><rect x="467" y="70" width="113" height="125" rx="11" fill="#131a2e" stroke="#1e293b" stroke-width="1.5"/><rect x="467" y="70" width="5" height="125" rx="2.5" fill="#f59e0b"/><text x="486" y="95" fill="#e2e8f0" font-size="13" font-weight="700">AEB</text><text x="486" y="112" fill="#e2e8f0" font-size="13" font-weight="700">evaluation</text><text x="486" y="135" fill="#9fb0c3" font-size="10.5">9 configs</text><text x="486" y="149" fill="#9fb0c3" font-size="10.5">3 TTC × 3</text><text x="486" y="163" fill="#9fb0c3" font-size="10.5">frames</text><path d="M582 132.5 H610" stroke="#5b677d" stroke-width="1.7" fill="none" marker-end="url(#ah)"/><rect x="614" y="70" width="113" height="125" rx="11" fill="#131a2e" stroke="#1e293b" stroke-width="1.5"/><rect x="614" y="70" width="5" height="125" rx="2.5" fill="#22d3ee"/><text x="633" y="95" fill="#e2e8f0" font-size="13" font-weight="700">Visual</text><text x="633" y="112" fill="#e2e8f0" font-size="13" font-weight="700">Inspection</text><text x="633" y="135" fill="#9fb0c3" font-size="10.5">+ Gemini</text><text x="633" y="149" fill="#9fb0c3" font-size="10.5">assist</text><path d="M729 132.5 H757" stroke="#5b677d" stroke-width="1.7" fill="none" marker-end="url(#ah)"/><rect x="761" y="70" width="113" height="125" rx="11" fill="#131a2e" stroke="#1e293b" stroke-width="1.5"/><rect x="761" y="70" width="5" height="125" rx="2.5" fill="#22d3ee"/><text x="780" y="95" fill="#e2e8f0" font-size="13" font-weight="700">PostgreSQL</text><text x="780" y="112" fill="#e2e8f0" font-size="13" font-weight="700">+</text><text x="780" y="129" fill="#e2e8f0" font-size="13" font-weight="700">dashboard</text><text x="780" y="152" fill="#9fb0c3" font-size="10.5">Redis cache</text><rect x="26" y="219" width="208" height="26" rx="7" fill="#0f1626" stroke="#1e293b" stroke-width="1"/><text x="39" y="236" fill="#cbd5e1" font-size="10">● 173,101 clips · 99.97% success</text><rect x="244" y="219" width="232" height="26" rx="7" fill="#0f1626" stroke="#1e293b" stroke-width="1"/><text x="257" y="236" fill="#cbd5e1" font-size="10">● +205% throughput vs single machine</text><rect x="486" y="219" width="238" height="26" rx="7" fill="#0f1626" stroke="#1e293b" stroke-width="1"/><text x="499" y="236" fill="#cbd5e1" font-size="10">● automation: single-person operation</text><rect x="26" y="253" width="262" height="26" rx="7" fill="#0f1626" stroke="#1e293b" stroke-width="1"/><text x="39" y="270" fill="#cbd5e1" font-size="10">● Gemini auto-FP on Vertex AI (see GenAI)</text></svg>
