<svg xmlns="http://www.w3.org/2000/svg" viewBox="0 0 900 298" font-family="'IBM Plex Mono',ui-monospace,Menlo,monospace" role="img" aria-label="Multi-Model Debate — Self-Critique Across Models"><defs><marker id="ah" viewBox="0 0 10 10" refX="8" refY="5" markerWidth="7" markerHeight="7" orient="auto-start-reverse"><path d="M0 0L10 5L0 10z" fill="#b3ab99"/></marker></defs><rect width="900" height="298" fill="#ffffff"/><text x="26" y="32" fill="#27317f" font-size="15" font-weight="700">Multi-Model Debate — Self-Critique Across Models</text><text x="26" y="51" fill="#8b8675" font-size="10.5">@debate hook · cross-model review via AWS Bedrock + Gemini CLI · feedback loop to Claude</text><rect x="26" y="70" width="156" height="132" rx="11" fill="#f4f0e7" stroke="#e6e0d3" stroke-width="1.5"/><rect x="26" y="70" width="5" height="132" rx="2.5" fill="#2c7572"/><text x="44" y="94" fill="#1f1d18" font-size="13" font-weight="700">Claude draft</text><text x="44" y="117" fill="#5f5b50" font-size="10.5">initial proposal</text><rect x="198" y="70" width="156" height="132" rx="11" fill="#f4f0e7" stroke="#e6e0d3" stroke-width="1.5"/><rect x="198" y="70" width="5" height="132" rx="2.5" fill="#4a55b8"/><text x="216" y="94" fill="#1f1d18" font-size="13" font-weight="700">GPT critique</text><text x="216" y="117" fill="#5f5b50" font-size="10.5">GPT-OSS 120B via AWS</text><text x="216" y="131" fill="#5f5b50" font-size="10.5">Bedrock</text><rect x="370" y="70" width="156" height="132" rx="11" fill="#f4f0e7" stroke="#e6e0d3" stroke-width="1.5"/><rect x="370" y="70" width="5" height="132" rx="2.5" fill="#1d7a44"/><text x="388" y="94" fill="#1f1d18" font-size="13" font-weight="700">Gemini review</text><text x="388" y="117" fill="#5f5b50" font-size="10.5">third-party arbiter</text><text x="388" y="131" fill="#5f5b50" font-size="10.5">· Gemini CLI</text><rect x="542" y="70" width="156" height="132" rx="11" fill="#f6efe2" stroke="#a96a12" stroke-width="1.8"/><text x="558" y="94" fill="#1f1d18" font-size="13" font-weight="700">Gemini synthesis</text><text x="558" y="117" fill="#5f5b50" font-size="10.5">resolve conflicts ·</text><text x="558" y="131" fill="#5f5b50" font-size="10.5">merge</text><rect x="714" y="70" width="156" height="132" rx="11" fill="#f4f0e7" stroke="#e6e0d3" stroke-width="1.5"/><rect x="714" y="70" width="5" height="132" rx="2.5" fill="#2c7572"/><text x="732" y="94" fill="#1f1d18" font-size="13" font-weight="700">Feedback →</text><text x="732" y="111" fill="#1f1d18" font-size="13" font-weight="700">Claude</text><text x="732" y="134" fill="#5f5b50" font-size="10.5">revise via exit-code</text><text x="732" y="148" fill="#5f5b50" font-size="10.5">signal</text><path d="M182 136 H198" stroke="#b3ab99" stroke-width="1.7" fill="none" marker-end="url(#ah)"/><path d="M354 136 H370" stroke="#b3ab99" stroke-width="1.7" fill="none" marker-end="url(#ah)"/><path d="M526 136 H542" stroke="#b3ab99" stroke-width="1.7" fill="none" marker-end="url(#ah)"/><path d="M698 136 H714" stroke="#b3ab99" stroke-width="1.7" fill="none" marker-end="url(#ah)"/><rect x="26" y="226" width="256" height="26" rx="7" fill="#ece7db" stroke="#e6e0d3" stroke-width="1"/><text x="39" y="243" fill="#3a362c" font-size="10">● draft → critique → review → synthesize</text><rect x="290" y="226" width="136" height="26" rx="7" fill="#ece7db" stroke="#e6e0d3" stroke-width="1"/><text x="303" y="243" fill="#3a362c" font-size="10">● 3 models, 1 answer</text><rect x="434" y="226" width="208" height="26" rx="7" fill="#ece7db" stroke="#e6e0d3" stroke-width="1"/><text x="447" y="243" fill="#3a362c" font-size="10">● self-critique / debate pattern</text><rect x="26" y="258" width="280" height="26" rx="7" fill="#ece7db" stroke="#e6e0d3" stroke-width="1"/><text x="39" y="275" fill="#3a362c" font-size="10">● also: NL cluster-ops tool-use + guardrails</text></svg>
