<svg xmlns="http://www.w3.org/2000/svg" viewBox="0 0 900 298" font-family="'JetBrains Mono',ui-monospace,Menlo,monospace" role="img" aria-label="Multi-Model Debate — Self-Critique Across Models"><defs><marker id="ah" viewBox="0 0 10 10" refX="8" refY="5" markerWidth="7" markerHeight="7" orient="auto-start-reverse"><path d="M0 0L10 5L0 10z" fill="#5b677d"/></marker></defs><rect width="900" height="298" fill="#0b1020"/><text x="26" y="32" fill="#22d3ee" font-size="15" font-weight="700">Multi-Model Debate — Self-Critique Across Models</text><text x="26" y="51" fill="#7d8ba5" font-size="10.5">@debate hook · cross-model review via AWS Bedrock + Gemini CLI · feedback loop to Claude</text><rect x="26" y="70" width="156" height="132" rx="11" fill="#131a2e" stroke="#1e293b" stroke-width="1.5"/><rect x="26" y="70" width="5" height="132" rx="2.5" fill="#22d3ee"/><text x="44" y="94" fill="#e2e8f0" font-size="13" font-weight="700">Claude draft</text><text x="44" y="117" fill="#9fb0c3" font-size="10.5">initial proposal</text><rect x="198" y="70" width="156" height="132" rx="11" fill="#131a2e" stroke="#1e293b" stroke-width="1.5"/><rect x="198" y="70" width="5" height="132" rx="2.5" fill="#a78bfa"/><text x="216" y="94" fill="#e2e8f0" font-size="13" font-weight="700">GPT critique</text><text x="216" y="117" fill="#9fb0c3" font-size="10.5">GPT-OSS 120B via AWS</text><text x="216" y="131" fill="#9fb0c3" font-size="10.5">Bedrock</text><rect x="370" y="70" width="156" height="132" rx="11" fill="#131a2e" stroke="#1e293b" stroke-width="1.5"/><rect x="370" y="70" width="5" height="132" rx="2.5" fill="#3fb950"/><text x="388" y="94" fill="#e2e8f0" font-size="13" font-weight="700">Gemini review</text><text x="388" y="117" fill="#9fb0c3" font-size="10.5">third-party arbiter</text><text x="388" y="131" fill="#9fb0c3" font-size="10.5">· Gemini CLI</text><rect x="542" y="70" width="156" height="132" rx="11" fill="#241c0f" stroke="#f59e0b" stroke-width="1.8"/><text x="558" y="94" fill="#f0f9ff" font-size="13" font-weight="700">Gemini synthesis</text><text x="558" y="117" fill="#c8d6e5" font-size="10.5">resolve conflicts ·</text><text x="558" y="131" fill="#c8d6e5" font-size="10.5">merge</text><rect x="714" y="70" width="156" height="132" rx="11" fill="#131a2e" stroke="#1e293b" stroke-width="1.5"/><rect x="714" y="70" width="5" height="132" rx="2.5" fill="#22d3ee"/><text x="732" y="94" fill="#e2e8f0" font-size="13" font-weight="700">Feedback →</text><text x="732" y="111" fill="#e2e8f0" font-size="13" font-weight="700">Claude</text><text x="732" y="134" fill="#9fb0c3" font-size="10.5">revise via exit-code</text><text x="732" y="148" fill="#9fb0c3" font-size="10.5">signal</text><path d="M182 136 H198" stroke="#5b677d" stroke-width="1.7" fill="none" marker-end="url(#ah)"/><path d="M354 136 H370" stroke="#5b677d" stroke-width="1.7" fill="none" marker-end="url(#ah)"/><path d="M526 136 H542" stroke="#5b677d" stroke-width="1.7" fill="none" marker-end="url(#ah)"/><path d="M698 136 H714" stroke="#5b677d" stroke-width="1.7" fill="none" marker-end="url(#ah)"/><rect x="26" y="226" width="256" height="26" rx="7" fill="#0f1626" stroke="#1e293b" stroke-width="1"/><text x="39" y="243" fill="#cbd5e1" font-size="10">● draft → critique → review → synthesize</text><rect x="290" y="226" width="136" height="26" rx="7" fill="#0f1626" stroke="#1e293b" stroke-width="1"/><text x="303" y="243" fill="#cbd5e1" font-size="10">● 3 models, 1 answer</text><rect x="434" y="226" width="208" height="26" rx="7" fill="#0f1626" stroke="#1e293b" stroke-width="1"/><text x="447" y="243" fill="#cbd5e1" font-size="10">● self-critique / debate pattern</text><rect x="26" y="258" width="280" height="26" rx="7" fill="#0f1626" stroke="#1e293b" stroke-width="1"/><text x="39" y="275" fill="#cbd5e1" font-size="10">● also: NL cluster-ops tool-use + guardrails</text></svg>