<svg xmlns="http://www.w3.org/2000/svg" viewBox="0 0 900 286" font-family="'IBM Plex Mono',ui-monospace,Menlo,monospace" role="img" aria-label="PRISM — Jira-Driven ISP Conversion &amp; Re-simulation"><defs><marker id="ah" viewBox="0 0 10 10" refX="8" refY="5" markerWidth="7" markerHeight="7" orient="auto-start-reverse"><path d="M0 0L10 5L0 10z" fill="#b3ab99"/></marker></defs><rect width="900" height="286" fill="#ffffff"/><text x="26" y="32" fill="#27317f" font-size="15" font-weight="700">PRISM — Jira-Driven ISP Conversion &amp; Re-simulation</text><text x="26" y="51" fill="#8b8675" font-size="10.5">event-driven · Terraform IaC · dual-version (issue + latest)</text><rect x="26" y="70" width="92" height="114" rx="11" fill="#f4f0e7" stroke="#e6e0d3" stroke-width="1.5"/><rect x="26" y="70" width="5" height="114" rx="2.5" fill="#2c7572"/><text x="45" y="95" fill="#1f1d18" font-size="13" font-weight="700">Jira</text><text x="45" y="112" fill="#1f1d18" font-size="13" font-weight="700">ticket</text><text x="45" y="135" fill="#5f5b50" font-size="10.5">status</text><text x="45" y="149" fill="#5f5b50" font-size="10.5">change</text><path d="M120 127 H148" stroke="#b3ab99" stroke-width="1.7" fill="none" marker-end="url(#ah)"/><rect x="152" y="70" width="92" height="114" rx="11" fill="#f4f0e7" stroke="#e6e0d3" stroke-width="1.5"/><rect x="152" y="70" width="5" height="114" rx="2.5" fill="#4a55b8"/><text x="171" y="95" fill="#1f1d18" font-size="13" font-weight="700">Webhook</text><text x="171" y="118" fill="#5f5b50" font-size="10.5">FastAPI ·</text><text x="171" y="132" fill="#5f5b50" font-size="10.5">ALB/TLS</text><path d="M246 127 H274" stroke="#b3ab99" stroke-width="1.7" fill="none" marker-end="url(#ah)"/><rect x="278" y="70" width="92" height="114" rx="11" fill="#f4f0e7" stroke="#e6e0d3" stroke-width="1.5"/><rect x="278" y="70" width="5" height="114" rx="2.5" fill="#a96a12"/><text x="297" y="95" fill="#1f1d18" font-size="13" font-weight="700">SQS</text><text x="297" y="112" fill="#1f1d18" font-size="13" font-weight="700">FIFO</text><text x="297" y="135" fill="#5f5b50" font-size="10.5">dedup ·</text><text x="297" y="149" fill="#5f5b50" font-size="10.5">DLQ</text><path d="M372 127 H400" stroke="#b3ab99" stroke-width="1.7" fill="none" marker-end="url(#ah)"/><rect x="404" y="70" width="92" height="114" rx="11" fill="#f4f0e7" stroke="#e6e0d3" stroke-width="1.5"/><rect x="404" y="70" width="5" height="114" rx="2.5" fill="#4a55b8"/><text x="423" y="95" fill="#1f1d18" font-size="13" font-weight="700">Lambda</text><text x="423" y="112" fill="#1f1d18" font-size="13" font-weight="700">consume</text><text x="423" y="129" fill="#1f1d18" font-size="13" font-weight="700">r</text><text x="423" y="152" fill="#5f5b50" font-size="10.5">ordered</text><text x="423" y="166" fill="#5f5b50" font-size="10.5">per issue</text><path d="M498 127 H526" stroke="#b3ab99" stroke-width="1.7" fill="none" marker-end="url(#ah)"/><rect x="530" y="70" width="92" height="114" rx="11" fill="#f4f0e7" stroke="#e6e0d3" stroke-width="1.5"/><rect x="530" y="70" width="5" height="114" rx="2.5" fill="#2c7572"/><text x="549" y="95" fill="#1f1d18" font-size="13" font-weight="700">Backend</text><text x="549" y="118" fill="#5f5b50" font-size="10.5">versioned</text><text x="549" y="132" fill="#5f5b50" font-size="10.5">jobs</text><text x="549" y="146" fill="#5f5b50" font-size="10.5">Postgres</text><path d="M624 127 H652" stroke="#b3ab99" stroke-width="1.7" fill="none" marker-end="url(#ah)"/><rect x="656" y="70" width="92" height="114" rx="11" fill="#f4f0e7" stroke="#e6e0d3" stroke-width="1.5"/><rect x="656" y="70" width="5" height="114" rx="2.5" fill="#1d7a44"/><text x="675" y="95" fill="#1f1d18" font-size="13" font-weight="700">ISP</text><text x="675" y="112" fill="#1f1d18" font-size="13" font-weight="700">convers</text><text x="675" y="129" fill="#1f1d18" font-size="13" font-weight="700">ion</text><text x="675" y="146" fill="#1f1d18" font-size="13" font-weight="700">tool</text><text x="675" y="169" fill="#5f5b50" font-size="10.5">in-house</text><path d="M750 127 H778" stroke="#b3ab99" stroke-width="1.7" fill="none" marker-end="url(#ah)"/><rect x="782" y="70" width="92" height="114" rx="11" fill="#e7f2eb" stroke="#1d7a44" stroke-width="1.8"/><text x="801" y="95" fill="#1f1d18" font-size="13" font-weight="700">Airflow</text><text x="801" y="112" fill="#1f1d18" font-size="13" font-weight="700">Resim</text><text x="801" y="129" fill="#1f1d18" font-size="13" font-weight="700">DAG</text><text x="801" y="152" fill="#5f5b50" font-size="10.5">dual-version</text><rect x="26" y="208" width="255" height="26" rx="7" fill="#ece7db" stroke="#e6e0d3" stroke-width="1"/><text x="39" y="225" fill="#3a362c" font-size="10">● Phase 1 (ISP): deployed ~150/month</text><rect x="291" y="208" width="293" height="26" rx="7" fill="#ece7db" stroke="#e6e0d3" stroke-width="1"/><text x="304" y="225" fill="#3a362c" font-size="10">● Phase 2 (Resim): in dev · technical lead</text><rect x="594" y="208" width="210" height="26" rx="7" fill="#ece7db" stroke="#e6e0d3" stroke-width="1"/><text x="607" y="225" fill="#3a362c" font-size="10">● FIFO ordering per issue key</text><rect x="26" y="242" width="178" height="26" rx="7" fill="#ece7db" stroke="#e6e0d3" stroke-width="1"/><text x="39" y="259" fill="#3a362c" font-size="10">● 80% faster than manual</text></svg>
