<svg xmlns="http://www.w3.org/2000/svg" viewBox="0 0 900 298" font-family="'JetBrains Mono',ui-monospace,Menlo,monospace" role="img" aria-label="PRISM — Jira-Driven ISP Conversion &amp; Re-Simulation"><defs><marker id="ah" viewBox="0 0 10 10" refX="8" refY="5" markerWidth="7" markerHeight="7" orient="auto-start-reverse"><path d="M0 0L10 5L0 10z" fill="#5b677d"/></marker></defs><rect width="900" height="298" fill="#0b1020"/><text x="26" y="32" fill="#22d3ee" font-size="15" font-weight="700">PRISM — Jira-Driven ISP Conversion &amp; Re-Simulation</text><text x="26" y="51" fill="#7d8ba5" font-size="10.5">event-driven · FIFO-ordered per issue · Terraform IaC</text><rect x="26" y="70" width="110" height="132" rx="11" fill="#131a2e" stroke="#1e293b" stroke-width="1.5"/><rect x="26" y="70" width="5" height="132" rx="2.5" fill="#22d3ee"/><text x="44" y="94" fill="#e2e8f0" font-size="13" font-weight="700">Jira</text><text x="44" y="111" fill="#e2e8f0" font-size="13" font-weight="700">ticket</text><text x="44" y="134" fill="#9fb0c3" font-size="10.5">status change</text><rect x="148" y="70" width="110" height="132" rx="11" fill="#131a2e" stroke="#1e293b" stroke-width="1.5"/><rect x="148" y="70" width="5" height="132" rx="2.5" fill="#a78bfa"/><text x="166" y="94" fill="#e2e8f0" font-size="13" font-weight="700">Webhook</text><text x="166" y="117" fill="#9fb0c3" font-size="10.5">FastAPI · ALB</text><text x="166" y="131" fill="#9fb0c3" font-size="10.5">/ TLS</text><rect x="270" y="70" width="110" height="132" rx="11" fill="#131a2e" stroke="#1e293b" stroke-width="1.5"/><rect x="270" y="70" width="5" height="132" rx="2.5" fill="#3fb950"/><text x="288" y="94" fill="#e2e8f0" font-size="13" font-weight="700">SQS FIFO</text><text x="288" y="117" fill="#9fb0c3" font-size="10.5">per-issue</text><text x="288" y="131" fill="#9fb0c3" font-size="10.5">order · dedup</text><text x="288" y="145" fill="#9fb0c3" font-size="10.5">· DLQ</text><rect x="392" y="70" width="110" height="132" rx="11" fill="#131a2e" stroke="#1e293b" stroke-width="1.5"/><rect x="392" y="70" width="5" height="132" rx="2.5" fill="#f59e0b"/><text x="410" y="94" fill="#e2e8f0" font-size="13" font-weight="700">Lambda</text><text x="410" y="111" fill="#e2e8f0" font-size="13" font-weight="700">consumer</text><text x="410" y="134" fill="#9fb0c3" font-size="10.5">ordered ·</text><text x="410" y="148" fill="#9fb0c3" font-size="10.5">batch = 1</text><rect x="514" y="70" width="110" height="132" rx="11" fill="#10242b" stroke="#22d3ee" stroke-width="1.8"/><text x="530" y="94" fill="#f0f9ff" font-size="13" font-weight="700">Backend</text><text x="530" y="117" fill="#c8d6e5" font-size="10.5">versioned</text><text x="530" y="131" fill="#c8d6e5" font-size="10.5">jobs ·</text><text x="530" y="145" fill="#c8d6e5" font-size="10.5">Postgres</text><rect x="636" y="70" width="110" height="132" rx="11" fill="#131a2e" stroke="#1e293b" stroke-width="1.5"/><rect x="636" y="70" width="5" height="132" rx="2.5" fill="#a78bfa"/><text x="654" y="94" fill="#e2e8f0" font-size="13" font-weight="700">ISP</text><text x="654" y="111" fill="#e2e8f0" font-size="13" font-weight="700">conversion</text><text x="654" y="128" fill="#e2e8f0" font-size="13" font-weight="700">tool</text><text x="654" y="151" fill="#9fb0c3" font-size="10.5">in-house ·</text><text x="654" y="165" fill="#9fb0c3" font-size="10.5">download/ISP/</text><text x="654" y="179" fill="#9fb0c3" font-size="10.5">upload</text><rect x="758" y="70" width="110" height="132" rx="11" fill="#131a2e" stroke="#1e293b" stroke-width="1.5"/><rect x="758" y="70" width="5" height="132" rx="2.5" fill="#3fb950"/><text x="776" y="94" fill="#e2e8f0" font-size="13" font-weight="700">Airflow</text><text x="776" y="111" fill="#e2e8f0" font-size="13" font-weight="700">Resim DAG</text><text x="776" y="134" fill="#9fb0c3" font-size="10.5">dual-version:</text><text x="776" y="148" fill="#9fb0c3" font-size="10.5">issue +</text><text x="776" y="162" fill="#9fb0c3" font-size="10.5">latest</text><path d="M136 136 H148" stroke="#5b677d" stroke-width="1.7" fill="none" marker-end="url(#ah)"/><path d="M258 136 H270" stroke="#5b677d" stroke-width="1.7" fill="none" marker-end="url(#ah)"/><path d="M380 136 H392" stroke="#5b677d" stroke-width="1.7" fill="none" marker-end="url(#ah)"/><path d="M502 136 H514" stroke="#5b677d" stroke-width="1.7" fill="none" marker-end="url(#ah)"/><path d="M624 136 H636" stroke="#5b677d" stroke-width="1.7" fill="none" marker-end="url(#ah)"/><path d="M746 136 H758" stroke="#5b677d" stroke-width="1.7" fill="none" marker-end="url(#ah)"/><rect x="26" y="226" width="232" height="26" rx="7" fill="#0f1626" stroke="#1e293b" stroke-width="1"/><text x="39" y="243" fill="#cbd5e1" font-size="10">● Phase 1 (ISP): deployed ~150/month</text><rect x="266" y="226" width="268" height="26" rx="7" fill="#0f1626" stroke="#1e293b" stroke-width="1"/><text x="279" y="243" fill="#cbd5e1" font-size="10">● Phase 2 (Resim): in dev · technical lead</text><rect x="542" y="226" width="166" height="26" rx="7" fill="#0f1626" stroke="#1e293b" stroke-width="1"/><text x="555" y="243" fill="#cbd5e1" font-size="10">● FIFO ordering per issue</text><rect x="26" y="258" width="160" height="26" rx="7" fill="#0f1626" stroke="#1e293b" stroke-width="1"/><text x="39" y="275" fill="#cbd5e1" font-size="10">● 80% faster than manual</text></svg>