<svg xmlns="http://www.w3.org/2000/svg" viewBox="0 0 900 364" font-family="'IBM Plex Mono',ui-monospace,Menlo,monospace" role="img" aria-label="RAG Knowledge Wiki — Hybrid Retrieval + Grounded Synthesis"><defs><marker id="ah" viewBox="0 0 10 10" refX="8" refY="5" markerWidth="7" markerHeight="7" orient="auto-start-reverse"><path d="M0 0L10 5L0 10z" fill="#b3ab99"/></marker></defs><rect width="900" height="364" fill="#ffffff"/><text x="26" y="32" fill="#27317f" font-size="15" font-weight="700">RAG Knowledge Wiki — Hybrid Retrieval + Grounded Synthesis</text><text x="26" y="51" fill="#8b8675" font-size="10.5">keyword + embedding retrieval to cited answers · CI-rebuilt vector index</text><text x="26" y="83" fill="#8b8675" font-size="10" font-weight="700" letter-spacing="1">INDEX BUILD (CI)</text><rect x="26" y="90" width="260" height="63" rx="11" fill="#f4f0e7" stroke="#e6e0d3" stroke-width="1.5"/><rect x="26" y="90" width="5" height="63" rx="2.5" fill="#4a55b8"/><text x="45" y="115" fill="#1f1d18" font-size="13" font-weight="700">Git + Markdown</text><text x="45" y="138" fill="#5f5b50" font-size="10.5">docs + frontmatter</text><path d="M288 121.5 H316" stroke="#b3ab99" stroke-width="1.7" fill="none" marker-end="url(#ah)"/><rect x="320" y="90" width="260" height="63" rx="11" fill="#f4f0e7" stroke="#e6e0d3" stroke-width="1.5"/><rect x="320" y="90" width="5" height="63" rx="2.5" fill="#4a55b8"/><text x="339" y="115" fill="#1f1d18" font-size="13" font-weight="700">GitHub Actions</text><text x="339" y="138" fill="#5f5b50" font-size="10.5">build embedding index</text><path d="M582 121.5 H610" stroke="#b3ab99" stroke-width="1.7" fill="none" marker-end="url(#ah)"/><rect x="614" y="90" width="260" height="63" rx="11" fill="#f4f0e7" stroke="#e6e0d3" stroke-width="1.5"/><rect x="614" y="90" width="5" height="63" rx="2.5" fill="#4a55b8"/><text x="633" y="115" fill="#1f1d18" font-size="13" font-weight="700">Vector index (.npy)</text><text x="633" y="138" fill="#5f5b50" font-size="10.5">text-embedding-3-small</text><text x="26" y="212" fill="#8b8675" font-size="10" font-weight="700" letter-spacing="1">QUERY</text><rect x="26" y="219" width="186.5" height="77" rx="11" fill="#f4f0e7" stroke="#e6e0d3" stroke-width="1.5"/><rect x="26" y="219" width="5" height="77" rx="2.5" fill="#2c7572"/><text x="45" y="244" fill="#1f1d18" font-size="13" font-weight="700">User question</text><text x="45" y="267" fill="#5f5b50" font-size="10.5">symptom / intent</text><path d="M214.5 257.5 H242.5" stroke="#b3ab99" stroke-width="1.7" fill="none" marker-end="url(#ah)"/><rect x="246.5" y="219" width="186.5" height="77" rx="11" fill="#e7f0ef" stroke="#2c7572" stroke-width="1.8"/><text x="265.5" y="244" fill="#1f1d18" font-size="13" font-weight="700">Hybrid retrieval</text><text x="265.5" y="267" fill="#5f5b50" font-size="10.5">grep field-scoring</text><text x="265.5" y="281" fill="#5f5b50" font-size="10.5">+ embedding cosine top-k</text><path d="M435 257.5 H463" stroke="#b3ab99" stroke-width="1.7" fill="none" marker-end="url(#ah)"/><rect x="467" y="219" width="186.5" height="77" rx="11" fill="#f4f0e7" stroke="#e6e0d3" stroke-width="1.5"/><rect x="467" y="219" width="5" height="77" rx="2.5" fill="#a96a12"/><text x="486" y="244" fill="#1f1d18" font-size="13" font-weight="700">Context inject</text><text x="486" y="267" fill="#5f5b50" font-size="10.5">top docs + sections</text><path d="M655.5 257.5 H683.5" stroke="#b3ab99" stroke-width="1.7" fill="none" marker-end="url(#ah)"/><rect x="687.5" y="219" width="186.5" height="77" rx="11" fill="#e7f2eb" stroke="#1d7a44" stroke-width="1.8"/><text x="706.5" y="244" fill="#1f1d18" font-size="13" font-weight="700">LLM synthesis</text><text x="706.5" y="267" fill="#5f5b50" font-size="10.5">grounded + cited</text><text x="706.5" y="281" fill="#5f5b50" font-size="10.5">+ freshness signals</text><rect x="26" y="320" width="248" height="26" rx="7" fill="#ece7db" stroke="#e6e0d3" stroke-width="1"/><text x="39" y="337" fill="#3a362c" font-size="10">● hybrid keyword + vector retrieval</text><rect x="284" y="320" width="248" height="26" rx="7" fill="#ece7db" stroke="#e6e0d3" stroke-width="1"/><text x="297" y="337" fill="#3a362c" font-size="10">● CI-rebuilt index (Git + Markdown)</text><rect x="542" y="320" width="236" height="26" rx="7" fill="#ece7db" stroke="#e6e0d3" stroke-width="1"/><text x="555" y="337" fill="#3a362c" font-size="10">● grounded answers with citations</text></svg>
