<svg xmlns="http://www.w3.org/2000/svg" viewBox="0 0 900 350" font-family="'JetBrains Mono',ui-monospace,Menlo,monospace" role="img" aria-label="RAG Knowledge Wiki — Hybrid Retrieval + Grounded Synthesis"><defs><marker id="ah" viewBox="0 0 10 10" refX="8" refY="5" markerWidth="7" markerHeight="7" orient="auto-start-reverse"><path d="M0 0L10 5L0 10z" fill="#5b677d"/></marker></defs><rect width="900" height="350" fill="#0b1020"/><text x="26" y="32" fill="#22d3ee" font-size="15" font-weight="700">RAG Knowledge Wiki — Hybrid Retrieval + Grounded Synthesis</text><text x="26" y="51" fill="#7d8ba5" font-size="10.5">CI-rebuilt embedding index · hybrid keyword + vector retrieval · cited answers</text><rect x="26" y="70" width="120" height="100" rx="11" fill="#10241f" stroke="#3fb950" stroke-width="1.8"/><text x="40" y="100" fill="#f0f9ff" font-size="13" font-weight="700">INDEX BUILD</text><text x="40" y="121" fill="#c8d6e5" font-size="10">CI</text><rect x="158" y="80" width="218" height="80" rx="11" fill="#131a2e" stroke="#1e293b" stroke-width="1.5"/><rect x="158" y="80" width="5" height="80" rx="2.5" fill="#22d3ee"/><text x="176" y="104" fill="#e2e8f0" font-size="13" font-weight="700">Git + Markdown docs</text><text x="176" y="127" fill="#9fb0c3" font-size="10.5">frontmatter: title / tags /</text><text x="176" y="141" fill="#9fb0c3" font-size="10.5">components</text><rect x="406" y="80" width="218" height="80" rx="11" fill="#131a2e" stroke="#1e293b" stroke-width="1.5"/><rect x="406" y="80" width="5" height="80" rx="2.5" fill="#a78bfa"/><text x="424" y="104" fill="#e2e8f0" font-size="13" font-weight="700">GitHub Actions</text><text x="424" y="127" fill="#9fb0c3" font-size="10.5">build_embed_index.py ·</text><text x="424" y="141" fill="#9fb0c3" font-size="10.5">text-embedding-3-small</text><rect x="654" y="80" width="218" height="80" rx="11" fill="#131a2e" stroke="#1e293b" stroke-width="1.5"/><rect x="654" y="80" width="5" height="80" rx="2.5" fill="#3fb950"/><text x="672" y="104" fill="#e2e8f0" font-size="13" font-weight="700">Vector index</text><text x="672" y="127" fill="#9fb0c3" font-size="10.5">.npy 1536-d L2-norm +</text><text x="672" y="141" fill="#9fb0c3" font-size="10.5">meta.json</text><path d="M376 120 H406" stroke="#5b677d" stroke-width="1.7" fill="none" marker-end="url(#ah)"/><path d="M624 120 H654" stroke="#5b677d" stroke-width="1.7" fill="none" marker-end="url(#ah)"/><rect x="26" y="188" width="120" height="100" rx="11" fill="#10242b" stroke="#22d3ee" stroke-width="1.8"/><text x="40" y="218" fill="#f0f9ff" font-size="13" font-weight="700">QUERY</text><text x="40" y="239" fill="#c8d6e5" font-size="10">runtime</text><rect x="158" y="198" width="218" height="80" rx="11" fill="#131a2e" stroke="#1e293b" stroke-width="1.5"/><rect x="158" y="198" width="5" height="80" rx="2.5" fill="#22d3ee"/><text x="176" y="222" fill="#e2e8f0" font-size="13" font-weight="700">User question</text><text x="176" y="245" fill="#9fb0c3" font-size="10.5">+ synonym expansion</text><rect x="406" y="198" width="218" height="80" rx="11" fill="#131a2e" stroke="#1e293b" stroke-width="1.5"/><rect x="406" y="198" width="5" height="80" rx="2.5" fill="#a78bfa"/><text x="424" y="222" fill="#e2e8f0" font-size="13" font-weight="700">Hybrid retrieval</text><text x="424" y="245" fill="#9fb0c3" font-size="10.5">grep field-scoring + embedding</text><text x="424" y="259" fill="#9fb0c3" font-size="10.5">cosine top-k</text><rect x="654" y="198" width="218" height="80" rx="11" fill="#131a2e" stroke="#1e293b" stroke-width="1.5"/><rect x="654" y="198" width="5" height="80" rx="2.5" fill="#3fb950"/><text x="672" y="222" fill="#e2e8f0" font-size="13" font-weight="700">LLM synthesis</text><text x="672" y="245" fill="#9fb0c3" font-size="10.5">grounded answer + citations +</text><text x="672" y="259" fill="#9fb0c3" font-size="10.5">freshness</text><path d="M376 238 H406" stroke="#5b677d" stroke-width="1.7" fill="none" marker-end="url(#ah)"/><path d="M624 238 H654" stroke="#5b677d" stroke-width="1.7" fill="none" marker-end="url(#ah)"/><rect x="26" y="310" width="226" height="26" rx="7" fill="#0f1626" stroke="#1e293b" stroke-width="1"/><text x="39" y="327" fill="#cbd5e1" font-size="10">● hybrid keyword + vector retrieval</text><rect x="260" y="310" width="124" height="26" rx="7" fill="#0f1626" stroke="#1e293b" stroke-width="1"/><text x="273" y="327" fill="#cbd5e1" font-size="10">● CI-rebuilt index</text><rect x="392" y="310" width="214" height="26" rx="7" fill="#0f1626" stroke="#1e293b" stroke-width="1"/><text x="405" y="327" fill="#cbd5e1" font-size="10">● grounded answers with citations</text><rect x="614" y="310" width="184" height="26" rx="7" fill="#0f1626" stroke="#1e293b" stroke-width="1"/><text x="627" y="327" fill="#cbd5e1" font-size="10">● grep-only offline fallback</text></svg>