<svg xmlns="http://www.w3.org/2000/svg" viewBox="0 0 900 364" font-family="'JetBrains Mono',ui-monospace,Menlo,monospace" role="img" aria-label="RAG Knowledge Wiki — Hybrid Retrieval + Grounded Synthesis"><defs><marker id="ah" viewBox="0 0 10 10" refX="8" refY="5" markerWidth="7" markerHeight="7" orient="auto-start-reverse"><path d="M0 0L10 5L0 10z" fill="#5b677d"/></marker></defs><rect width="900" height="364" fill="#0b1020"/><text x="26" y="32" fill="#22d3ee" font-size="15" font-weight="700">RAG Knowledge Wiki — Hybrid Retrieval + Grounded Synthesis</text><text x="26" y="51" fill="#7d8ba5" font-size="10.5">keyword + embedding retrieval to cited answers · CI-rebuilt vector index</text><text x="26" y="83" fill="#7d8ba5" font-size="10" font-weight="700" letter-spacing="1">INDEX BUILD (CI)</text><rect x="26" y="90" width="260" height="63" rx="11" fill="#131a2e" stroke="#1e293b" stroke-width="1.5"/><rect x="26" y="90" width="5" height="63" rx="2.5" fill="#a78bfa"/><text x="45" y="115" fill="#e2e8f0" font-size="13" font-weight="700">Git + Markdown</text><text x="45" y="138" fill="#9fb0c3" font-size="10.5">docs + frontmatter</text><path d="M288 121.5 H316" stroke="#5b677d" stroke-width="1.7" fill="none" marker-end="url(#ah)"/><rect x="320" y="90" width="260" height="63" rx="11" fill="#131a2e" stroke="#1e293b" stroke-width="1.5"/><rect x="320" y="90" width="5" height="63" rx="2.5" fill="#a78bfa"/><text x="339" y="115" fill="#e2e8f0" font-size="13" font-weight="700">GitHub Actions</text><text x="339" y="138" fill="#9fb0c3" font-size="10.5">build embedding index</text><path d="M582 121.5 H610" stroke="#5b677d" stroke-width="1.7" fill="none" marker-end="url(#ah)"/><rect x="614" y="90" width="260" height="63" rx="11" fill="#131a2e" stroke="#1e293b" stroke-width="1.5"/><rect x="614" y="90" width="5" height="63" rx="2.5" fill="#a78bfa"/><text x="633" y="115" fill="#e2e8f0" font-size="13" font-weight="700">Vector index (.npy)</text><text x="633" y="138" fill="#9fb0c3" font-size="10.5">text-embedding-3-small</text><text x="26" y="212" fill="#7d8ba5" font-size="10" font-weight="700" letter-spacing="1">QUERY</text><rect x="26" y="219" width="186.5" height="77" rx="11" fill="#131a2e" stroke="#1e293b" stroke-width="1.5"/><rect x="26" y="219" width="5" height="77" rx="2.5" fill="#22d3ee"/><text x="45" y="244" fill="#e2e8f0" font-size="13" font-weight="700">User question</text><text x="45" y="267" fill="#9fb0c3" font-size="10.5">symptom / intent</text><path d="M214.5 257.5 H242.5" stroke="#5b677d" stroke-width="1.7" fill="none" marker-end="url(#ah)"/><rect x="246.5" y="219" width="186.5" height="77" rx="11" fill="#0e2230" stroke="#22d3ee" stroke-width="1.8"/><text x="265.5" y="244" fill="#e9fbff" font-size="13" font-weight="700">Hybrid retrieval</text><text x="265.5" y="267" fill="#bfe9d4" font-size="10.5">grep field-scoring</text><text x="265.5" y="281" fill="#bfe9d4" font-size="10.5">+ embedding cosine top-k</text><path d="M435 257.5 H463" stroke="#5b677d" stroke-width="1.7" fill="none" marker-end="url(#ah)"/><rect x="467" y="219" width="186.5" height="77" rx="11" fill="#131a2e" stroke="#1e293b" stroke-width="1.5"/><rect x="467" y="219" width="5" height="77" rx="2.5" fill="#f59e0b"/><text x="486" y="244" fill="#e2e8f0" font-size="13" font-weight="700">Context inject</text><text x="486" y="267" fill="#9fb0c3" font-size="10.5">top docs + sections</text><path d="M655.5 257.5 H683.5" stroke="#5b677d" stroke-width="1.7" fill="none" marker-end="url(#ah)"/><rect x="687.5" y="219" width="186.5" height="77" rx="11" fill="#10241f" stroke="#3fb950" stroke-width="1.8"/><text x="706.5" y="244" fill="#e9fbff" font-size="13" font-weight="700">LLM synthesis</text><text x="706.5" y="267" fill="#bfe9d4" font-size="10.5">grounded + cited</text><text x="706.5" y="281" fill="#bfe9d4" font-size="10.5">+ freshness signals</text><rect x="26" y="320" width="226" height="26" rx="7" fill="#0f1626" stroke="#1e293b" stroke-width="1"/><text x="39" y="337" fill="#cbd5e1" font-size="10">● hybrid keyword + vector retrieval</text><rect x="262" y="320" width="226" height="26" rx="7" fill="#0f1626" stroke="#1e293b" stroke-width="1"/><text x="275" y="337" fill="#cbd5e1" font-size="10">● CI-rebuilt index (Git + Markdown)</text><rect x="498" y="320" width="214" height="26" rx="7" fill="#0f1626" stroke="#1e293b" stroke-width="1"/><text x="511" y="337" fill="#cbd5e1" font-size="10">● grounded answers with citations</text></svg>
