<svg xmlns="http://www.w3.org/2000/svg" viewBox="0 0 900 297" font-family="'IBM Plex Mono',ui-monospace,Menlo,monospace" role="img" aria-label="Gemini × Vertex AI — Auto-FP Detection (production)"><defs><marker id="ah" viewBox="0 0 10 10" refX="8" refY="5" markerWidth="7" markerHeight="7" orient="auto-start-reverse"><path d="M0 0L10 5L0 10z" fill="#b3ab99"/></marker></defs><rect width="900" height="297" fill="#ffffff"/><text x="26" y="32" fill="#27317f" font-size="15" font-weight="700">Gemini × Vertex AI — Auto-FP Detection (production)</text><text x="26" y="51" fill="#8b8675" font-size="10.5">autonomous-driving vision inference to multimodal LLM classification</text><rect x="26" y="70" width="142.4" height="125" rx="11" fill="#f4f0e7" stroke="#e6e0d3" stroke-width="1.5"/><rect x="26" y="70" width="5" height="125" rx="2.5" fill="#4a55b8"/><text x="45" y="95" fill="#1f1d18" font-size="13" font-weight="700">Airflow DAG</text><text x="45" y="118" fill="#5f5b50" font-size="10.5">SVNet3 inference</text><text x="45" y="132" fill="#5f5b50" font-size="10.5">GPU workers</text><path d="M170.4 132.5 H198.4" stroke="#b3ab99" stroke-width="1.7" fill="none" marker-end="url(#ah)"/><rect x="202.4" y="70" width="142.4" height="125" rx="11" fill="#f4f0e7" stroke="#e6e0d3" stroke-width="1.5"/><rect x="202.4" y="70" width="5" height="125" rx="2.5" fill="#2c7572"/><text x="221.4" y="95" fill="#1f1d18" font-size="13" font-weight="700">Frames + meta</text><text x="221.4" y="118" fill="#5f5b50" font-size="10.5">JPEG + AEB / TTC</text><text x="221.4" y="132" fill="#5f5b50" font-size="10.5">to S3 / HCP</text><path d="M346.8 132.5 H374.8" stroke="#b3ab99" stroke-width="1.7" fill="none" marker-end="url(#ah)"/><rect x="378.8" y="70" width="142.4" height="125" rx="11" fill="#e7f2eb" stroke="#1d7a44" stroke-width="1.8"/><text x="397.8" y="95" fill="#1f1d18" font-size="13" font-weight="700">Vertex AI ·</text><text x="397.8" y="112" fill="#1f1d18" font-size="13" font-weight="700">Gemini 2.5</text><text x="397.8" y="129" fill="#1f1d18" font-size="13" font-weight="700">Flash</text><text x="397.8" y="152" fill="#5f5b50" font-size="10.5">image + metadata</text><text x="397.8" y="166" fill="#5f5b50" font-size="10.5">+ inspection</text><text x="397.8" y="180" fill="#5f5b50" font-size="10.5">manual</text><path d="M523.2 132.5 H551.2" stroke="#b3ab99" stroke-width="1.7" fill="none" marker-end="url(#ah)"/><rect x="555.2" y="70" width="142.4" height="125" rx="11" fill="#f4f0e7" stroke="#e6e0d3" stroke-width="1.5"/><rect x="555.2" y="70" width="5" height="125" rx="2.5" fill="#a96a12"/><text x="574.2" y="95" fill="#1f1d18" font-size="13" font-weight="700">Structured</text><text x="574.2" y="112" fill="#1f1d18" font-size="13" font-weight="700">JSON</text><text x="574.2" y="135" fill="#5f5b50" font-size="10.5">FP / TP ·</text><text x="574.2" y="149" fill="#5f5b50" font-size="10.5">confidence</text><text x="574.2" y="163" fill="#5f5b50" font-size="10.5">· reasoning</text><text x="574.2" y="177" fill="#5f5b50" font-size="10.5">(schema)</text><path d="M699.6 132.5 H727.6" stroke="#b3ab99" stroke-width="1.7" fill="none" marker-end="url(#ah)"/><rect x="731.6" y="70" width="142.4" height="125" rx="11" fill="#f4f0e7" stroke="#e6e0d3" stroke-width="1.5"/><rect x="731.6" y="70" width="5" height="125" rx="2.5" fill="#2c7572"/><text x="750.6" y="95" fill="#1f1d18" font-size="13" font-weight="700">PostgreSQL</text><text x="750.6" y="118" fill="#5f5b50" font-size="10.5">to stats</text><text x="750.6" y="132" fill="#5f5b50" font-size="10.5">dashboard</text><rect x="26" y="219" width="332" height="26" rx="7" fill="#ece7db" stroke="#e6e0d3" stroke-width="1"/><text x="39" y="236" fill="#3a362c" font-size="10">● FastAPI batched async · dedup ~40% fewer calls</text><rect x="368" y="219" width="204" height="26" rx="7" fill="#ece7db" stroke="#e6e0d3" stroke-width="1"/><text x="381" y="236" fill="#3a362c" font-size="10">● per-request token tracking</text><rect x="582" y="219" width="223" height="26" rx="7" fill="#ece7db" stroke="#e6e0d3" stroke-width="1"/><text x="595" y="236" fill="#3a362c" font-size="10">● JSON-schema structured output</text><rect x="26" y="253" width="248" height="26" rx="7" fill="#ece7db" stroke="#e6e0d3" stroke-width="1"/><text x="39" y="270" fill="#3a362c" font-size="10">● human-in-the-loop (human decides)</text><rect x="284" y="253" width="242" height="26" rx="7" fill="#ece7db" stroke="#e6e0d3" stroke-width="1"/><text x="297" y="270" fill="#3a362c" font-size="10">● real customer-release evaluation</text></svg>
